<svg width="134" height="146" viewBox="0 0 134 146" fill="none" xmlns="http://www.w3.org/2000/svg">
<rect width="134" height="146" fill="#16384f"/>
<path d="M119.874 31.6146C127.777 30.7128 133.913 24.0021 133.913 15.8598C133.913 13.0283 133.171 10.3708 131.872 8.06897C132.861 10.0161 133.421 12.2211 133.421 14.5545C133.421 22.4672 127.006 28.882 119.094 28.882C111.183 28.882 104.767 22.4661 104.767 14.5545C104.767 6.64286 111.181 0.226973 119.094 0.226973C120.292 0.226973 121.454 0.374914 122.566 0.652305C121.137 0.226972 119.622 0.00070854 118.054 0.00070854C109.779 0.00070854 102.985 6.33718 102.26 14.4261C101.572 6.72444 95.3289 0.48587 87.377 0.0268157C78.6321 -0.477927 71.1338 6.20338 70.6302 14.9483C70.132 23.6061 76.674 31.0413 85.2927 31.6766C77.0841 32.2803 70.615 39.1313 70.615 47.4933C70.615 50.3237 71.3569 52.9823 72.6568 55.2831C71.6669 53.3359 71.1077 51.132 71.1077 48.7997C71.1077 40.8859 77.5225 34.4722 85.4342 34.4722C93.3458 34.4722 99.7617 40.887 99.7617 48.7997C99.7617 56.7124 93.3469 63.1261 85.4342 63.1261C84.2365 63.1261 83.0725 62.9793 81.9619 62.703C83.3913 63.1261 84.9055 63.3535 86.4741 63.3535C94.9427 63.3535 101.862 56.7146 102.31 48.357C102.777 56.1359 108.921 62.5724 116.91 63.1936C125.643 63.8724 133.273 57.3434 133.951 48.6115C134.618 40.0472 128.352 32.5435 119.875 31.6167L119.874 31.6146ZM131.201 47.3519C130.588 55.2406 123.696 61.1387 115.807 60.5252C107.917 59.9106 102.02 53.0193 102.633 45.1295C102.726 43.9351 102.963 42.7874 103.325 41.7007C102.791 43.0931 102.447 44.5856 102.326 46.1487C102.316 46.2738 102.308 46.4011 102.302 46.5273C101.827 38.6124 95.5497 32.2618 87.6663 31.6755C89.719 31.5199 91.6717 30.9738 93.4437 30.1025C91.4432 30.9793 89.2099 31.409 86.8799 31.2741C78.9813 30.8194 72.9461 24.0456 73.4019 16.147C73.8566 8.24629 80.6304 2.21222 88.529 2.66801C96.4297 3.1238 102.464 9.89649 102.008 17.7961C101.939 18.9916 101.726 20.1436 101.386 21.238C101.835 19.9881 102.134 18.6642 102.257 17.2838C102.926 24.7984 108.836 30.803 116.306 31.6211C114.593 31.8191 112.956 32.2901 111.445 32.9972C113.462 32.1606 115.702 31.7745 118.029 31.9561C125.919 32.5696 131.817 39.462 131.203 47.3508L131.201 47.3519Z" fill="white"/>
<path d="M53.975 91.1774C51.5143 91.1774 49.355 90.6074 47.4971 89.4641C45.6391 88.323 44.1956 86.7337 43.1654 84.7006C42.1364 82.6664 41.6218 80.2939 41.6218 77.5831C41.6218 74.8723 42.1429 72.5237 43.1861 70.4645C44.2271 68.4064 45.7087 66.7997 47.6298 65.6444C49.5508 64.4903 51.8157 63.9115 54.4275 63.9115C57.3896 63.9115 59.8633 64.6208 61.8474 66.0393C63.8305 67.4589 65.0989 69.4354 65.6515 71.9711H61.9986C61.6462 70.3894 60.8173 69.1352 59.513 68.2062C58.2076 67.2772 56.5128 66.8116 54.4286 66.8116C52.4955 66.8116 50.8062 67.2457 49.3638 68.1116C47.9191 68.9786 46.8085 70.2154 46.0296 71.8221C45.2518 73.4288 44.8624 75.3487 44.8624 77.5842C44.8624 79.8196 45.2518 81.7451 46.0296 83.3648C46.8074 84.9835 47.8941 86.2214 49.2876 87.0742C50.6822 87.9282 52.2823 88.3546 54.0892 88.3546C56.9012 88.3546 59.0235 87.5257 60.455 85.8689C61.8855 84.2111 62.7014 81.9648 62.9026 79.1278H55.2956V76.6422H66.141V90.7271H63.2409L62.9777 86.3954C62.3489 87.4256 61.6266 88.2969 60.8118 89.0138C59.996 89.7296 59.0354 90.2691 57.9313 90.6335C56.8261 90.9969 55.5077 91.1785 53.9771 91.1785L53.975 91.1774Z" fill="white"/>
<path d="M78.58 82.9993C78.8911 82.897 79.1826 82.7752 79.4513 82.6327C80.4184 82.1236 81.1298 81.4459 81.5878 80.6018C82.0446 79.7598 82.272 78.846 82.272 77.8605C82.272 76.8064 82.0392 75.8622 81.5747 75.0278C81.108 74.1935 80.3966 73.5245 79.4393 73.023C78.481 72.5226 77.2724 72.2724 75.8148 72.2724H69.1965V90.726H72.3599V83.3974H75.3318L78.8193 90.726H82.4308L78.58 82.9993ZM72.3599 74.9093H75.6026C76.7971 74.9093 77.6684 75.1856 78.2123 75.7393C78.7573 76.293 79.0303 77.0261 79.0303 77.9399C79.0303 78.8537 78.754 79.6227 78.2003 80.1949C77.6466 80.766 76.7796 81.051 75.6026 81.051H72.3599V74.9093Z" fill="white"/>
<path d="M92.3017 91.0425C90.5253 91.0425 88.9578 90.6433 87.5959 89.8427C86.2339 89.0431 85.1657 87.927 84.3923 86.4944C83.6188 85.0629 83.2327 83.3974 83.2327 81.4992C83.2327 79.601 83.6188 77.9627 84.3923 76.5301C85.1657 75.0975 86.2339 73.977 87.5959 73.1688C88.9578 72.3616 90.5253 71.957 92.3017 71.957C94.0781 71.957 95.7022 72.3616 97.0728 73.1688C98.4435 73.977 99.5063 75.0975 100.262 76.5301C101.018 77.9627 101.397 79.6195 101.397 81.4992C101.397 83.3789 101.019 85.0629 100.262 86.4944C99.5073 87.927 98.4435 89.0431 97.0728 89.8427C95.7011 90.6433 94.1107 91.0425 92.3017 91.0425ZM92.3278 88.1957C93.5048 88.1957 94.5339 87.927 95.4117 87.3918C96.2907 86.8556 96.9673 86.0876 97.4416 85.0846C97.9159 84.0827 98.153 82.8872 98.153 81.4992C98.153 80.1112 97.9159 78.9157 97.4416 77.9138C96.9673 76.9119 96.2907 76.1428 95.4117 75.6065C94.5339 75.0703 93.5048 74.8027 92.3278 74.8027C91.1508 74.8027 90.1217 75.0713 89.2428 75.6065C88.3649 76.1428 87.6829 76.9108 87.1999 77.9138C86.7158 78.9157 86.4743 80.1112 86.4743 81.4992C86.4743 82.8872 86.7158 84.0827 87.1999 85.0846C87.6829 86.0865 88.3639 86.8556 89.2428 87.3918C90.1217 87.9281 91.1497 88.1957 92.3278 88.1957Z" fill="white"/>
<path d="M110.176 91.0425C108.84 91.0425 107.632 90.7793 106.552 90.2517C105.472 89.7241 104.61 88.9159 103.968 87.8259C103.328 86.737 103.007 85.3653 103.007 83.7129V72.2724H106.17V83.7401C106.17 84.7409 106.336 85.5687 106.67 86.217C107.004 86.8675 107.474 87.3549 108.081 87.6812C108.688 88.0054 109.404 88.1686 110.23 88.1686C111.055 88.1686 111.798 88.0065 112.404 87.6812C113.011 87.356 113.476 86.8675 113.802 86.217C114.127 85.5676 114.29 84.7409 114.29 83.7401V72.2724H117.454V83.7129C117.454 85.3653 117.13 86.737 116.479 87.8259C115.829 88.9148 114.95 89.7241 113.842 90.2517C112.735 90.7793 111.513 91.0425 110.177 91.0425H110.176Z" fill="white"/>
<path d="M119.945 90.726V72.2724H126.588C128.064 72.2724 129.286 72.5237 130.253 73.0241C131.22 73.5245 131.939 74.1968 132.415 75.0409C132.89 75.885 133.127 76.851 133.127 77.941C133.127 78.9603 132.898 79.8969 132.442 80.7497C131.984 81.6015 131.272 82.2879 130.306 82.8057C129.338 83.3245 128.1 83.5834 126.589 83.5834H123.109V90.7271H119.946L119.945 90.726ZM123.108 80.9988H126.404C127.652 80.9988 128.547 80.7214 129.093 80.1677C129.637 79.614 129.91 78.8722 129.91 77.9399C129.91 77.0077 129.637 76.2179 129.093 75.6729C128.548 75.129 127.652 74.856 126.404 74.856H123.108V80.9988Z" fill="white"/>
<path d="M29.1913 118.473C27.2583 118.473 25.5765 118.121 24.145 117.419C22.7145 116.716 21.6093 115.736 20.8315 114.482C20.0537 113.226 19.6643 111.769 19.6643 110.113H22.9778C22.9778 111.143 23.216 112.089 23.6935 112.956C24.17 113.822 24.8673 114.513 25.7843 115.027C26.7002 115.541 27.8359 115.799 29.1913 115.799C30.3716 115.799 31.3822 115.605 32.223 115.215C33.0639 114.826 33.7046 114.293 34.1441 113.615C34.5836 112.937 34.8033 112.171 34.8033 111.317C34.8033 110.288 34.5825 109.453 34.1441 108.813C33.7046 108.173 33.1085 107.652 32.3558 107.25C31.603 106.848 30.7295 106.49 29.7374 106.176C28.7453 105.863 27.7097 105.518 26.6306 105.141C24.5464 104.438 23.0148 103.565 22.0357 102.522C21.0567 101.481 20.5672 100.119 20.5672 98.4364C20.5672 97.0059 20.899 95.7495 21.5647 94.6704C22.2294 93.5913 23.1834 92.7449 24.4267 92.1282C25.669 91.5136 27.143 91.2057 28.8519 91.2057C30.5609 91.2057 31.9957 91.5201 33.2391 92.1477C34.4813 92.7765 35.4538 93.6359 36.1576 94.728C36.8604 95.8191 37.2117 97.082 37.2117 98.5125H33.8983C33.8983 97.7848 33.7101 97.069 33.3337 96.3663C32.9573 95.6635 32.3862 95.0805 31.6204 94.6149C30.8546 94.1504 29.894 93.9176 28.7399 93.9176C27.7859 93.8937 26.9374 94.0492 26.1977 94.3886C25.4569 94.728 24.8793 95.2121 24.4648 95.8376C24.0503 96.4663 23.8437 97.2322 23.8437 98.135C23.8437 98.989 24.0242 99.6786 24.3887 100.206C24.7531 100.734 25.2807 101.18 25.9714 101.543C26.6611 101.908 27.4704 102.24 28.3994 102.541C29.3284 102.842 30.3585 103.181 31.4877 103.558C32.768 103.984 33.9048 104.505 34.8958 105.121C35.8879 105.736 36.6656 106.52 37.2302 107.475C37.7948 108.429 38.0787 109.647 38.0787 111.128C38.0787 112.383 37.7458 113.57 37.0812 114.687C36.4154 115.804 35.4299 116.715 34.1245 117.418C32.8192 118.12 31.1733 118.472 29.1902 118.472L29.1913 118.473Z" fill="white"/>
<path d="M58.8873 99.5677V118.021H55.7229V109.902H47.2337V118.021H44.0703V99.5677H47.2337V107.318H55.7229V99.5677H58.8873Z" fill="white"/>
<path d="M72.8462 99.5677H69.313L62.5642 118.021H65.8603L67.3908 113.671H74.7161L76.2466 118.021H79.5938L72.8462 99.5677ZM68.2719 111.167L71.0535 103.259L73.835 111.167H68.2719Z" fill="white"/>
<path d="M92.655 110.295C92.9672 110.192 93.2577 110.07 93.5275 109.928C94.4934 109.419 95.2048 108.741 95.6628 107.898C96.1197 107.055 96.3481 106.141 96.3481 105.156C96.3481 104.102 96.1142 103.157 95.6497 102.323C95.1831 101.489 94.4717 100.82 93.5144 100.319C92.556 99.819 91.3475 99.5677 89.8898 99.5677H83.2727V118.021H86.4349V110.693H89.4068L92.8944 118.021H96.5059L92.655 110.295ZM86.4349 102.205H89.6788C90.8732 102.205 91.7434 102.481 92.2873 103.035C92.8334 103.588 93.1054 104.321 93.1054 105.235C93.1054 106.149 92.8291 106.919 92.2754 107.49C91.7217 108.061 90.8547 108.346 89.6788 108.346H86.4349V102.205Z" fill="white"/>
<path d="M100.912 118.021V99.5677H112.827V102.125H104.075V107.423H112.037V109.927H104.075V115.463H112.827V118.02H100.912V118.021Z" fill="white"/>
<path d="M117.387 118.021V99.5677H123.345C125.489 99.5677 127.26 99.9451 128.658 100.701C130.056 101.457 131.092 102.525 131.768 103.905C132.446 105.284 132.784 106.923 132.784 108.821C132.784 110.718 132.446 112.305 131.768 113.685C131.092 115.065 130.056 116.133 128.658 116.888C127.26 117.644 125.491 118.022 123.345 118.022H117.387V118.021ZM120.551 115.333H123.188C124.787 115.333 126.047 115.074 126.971 114.555C127.894 114.038 128.553 113.29 128.948 112.315C129.342 111.34 129.54 110.175 129.54 108.822C129.54 107.468 129.342 106.277 128.948 105.303C128.553 104.327 127.894 103.571 126.971 103.036C126.049 102.499 124.787 102.232 123.188 102.232H120.551V115.334V115.333Z" fill="white"/>
<path d="M9.52702 145.77C7.59399 145.77 5.91224 145.419 4.48068 144.716C3.05022 144.013 1.945 143.033 1.16721 141.779C0.389433 140.524 0 139.066 0 137.41H3.31347C3.31347 138.44 3.55169 139.387 4.02924 140.254C4.5057 141.12 5.20298 141.81 6.12 142.324C7.03594 142.838 8.17161 143.096 9.52702 143.096C10.7073 143.096 11.7179 142.903 12.5587 142.512C13.3996 142.124 14.0403 141.591 14.4798 140.912C14.9193 140.234 15.139 139.468 15.139 138.615C15.139 137.585 14.9182 136.75 14.4798 136.11C14.0403 135.471 13.4442 134.95 12.6914 134.547C11.9387 134.146 11.0652 133.788 10.0731 133.474C9.08101 133.16 8.04542 132.815 6.96632 132.438C4.88208 131.735 3.35045 130.863 2.37142 129.82C1.3924 128.779 0.902885 127.417 0.902885 125.734C0.902885 124.303 1.23467 123.047 1.90041 121.968C2.56506 120.889 3.51906 120.042 4.76242 119.426C6.0047 118.811 7.47868 118.503 9.18763 118.503C10.8966 118.503 12.3314 118.818 13.5747 119.445C14.817 120.074 15.7895 120.933 16.4933 122.025C17.1961 123.117 17.5474 124.379 17.5474 125.81H14.234C14.234 125.082 14.0458 124.366 13.6694 123.664C13.293 122.961 12.7219 122.378 11.9561 121.912C11.1903 121.448 10.2297 121.215 9.07558 121.215C8.12157 121.191 7.27308 121.347 6.53337 121.686C5.79258 122.025 5.21495 122.51 4.80049 123.135C4.38604 123.764 4.17936 124.53 4.17936 125.432C4.17936 126.286 4.35994 126.976 4.72435 127.504C5.08877 128.031 5.61634 128.477 6.3071 128.841C6.99677 129.205 7.80611 129.538 8.7351 129.838C9.66408 130.139 10.6942 130.479 11.8234 130.855C13.1037 131.282 14.2405 131.803 15.2315 132.418C16.2236 133.033 17.0013 133.817 17.5659 134.772C18.1305 135.726 18.4144 136.945 18.4144 138.425C18.4144 139.681 18.0815 140.867 17.4169 141.985C16.7511 143.102 15.7656 144.012 14.4602 144.715C13.1549 145.418 11.509 145.769 9.52593 145.769L9.52702 145.77Z" fill="white"/>
<path d="M23.9543 145.318V126.864H35.8702V129.421H27.1177V134.719H35.0793V137.223H27.1177V142.759H35.8702V145.316H23.9543V145.318Z" fill="white"/>
<path d="M49.4963 137.591C49.8085 137.49 50.099 137.367 50.3688 137.224C51.3347 136.715 52.0473 136.039 52.5052 135.194C52.961 134.351 53.1895 133.438 53.1895 132.453C53.1895 131.399 52.9567 130.454 52.4911 129.619C52.0255 128.785 51.313 128.116 50.3557 127.616C49.3974 127.115 48.1888 126.864 46.7312 126.864H40.114V145.318H43.2774V137.989H46.2482L49.7357 145.318H53.3472L49.4963 137.591ZM43.2774 129.501H46.5201C47.7145 129.501 48.5848 129.778 49.1298 130.331C49.6747 130.885 49.9467 131.619 49.9467 132.531C49.9467 133.444 49.6704 134.215 49.1167 134.787C48.563 135.358 47.6971 135.643 46.5201 135.643H43.2774V129.501Z" fill="white"/>
<path d="M62.2661 145.318L55.4912 126.864H58.8917L64.1904 142.076L69.5685 126.864H72.9168L66.1147 145.318H62.265H62.2661Z" fill="white"/>
<path d="M76.189 145.318V126.864H79.3523V145.318H76.189Z" fill="white"/>
<path d="M92.3745 145.634C90.5459 145.634 88.9686 145.235 87.6425 144.434C86.3154 143.635 85.2961 142.519 84.5847 141.086C83.8733 139.654 83.5176 137.998 83.5176 136.117C83.5176 134.236 83.8733 132.554 84.5847 131.122C85.2961 129.689 86.3154 128.569 87.6425 127.76C88.9697 126.953 90.547 126.549 92.3745 126.549C94.5708 126.549 96.3635 127.088 97.7526 128.169C99.1406 129.251 100.02 130.775 100.388 132.744H96.9096C96.6626 131.707 96.1622 130.89 95.4073 130.293C94.6513 129.696 93.6309 129.396 92.3495 129.396C91.1899 129.396 90.1913 129.665 89.3569 130.2C88.5215 130.737 87.8808 131.51 87.4326 132.521C86.9844 133.531 86.7603 134.731 86.7603 136.119C86.7603 137.507 86.9844 138.698 87.4326 139.691C87.8808 140.685 88.5215 141.449 89.3569 141.986C90.1913 142.522 91.1888 142.79 92.3495 142.79C93.6309 142.79 94.6513 142.513 95.4073 141.958C96.1622 141.405 96.6626 140.637 96.9096 139.651H100.388C100.037 141.515 99.1624 142.978 97.7657 144.04C96.3678 145.104 94.5719 145.635 92.3745 145.635V145.634Z" fill="white"/>
<path d="M104.422 145.318V126.864H116.338V129.421H107.585V134.719H115.547V137.223H107.585V142.759H116.338V145.316H104.422V145.318Z" fill="white"/>
<path d="M126.324 145.634C124.988 145.634 123.801 145.397 122.765 144.923C121.728 144.448 120.92 143.772 120.34 142.893C119.759 142.015 119.461 140.969 119.443 139.756H122.792C122.792 140.37 122.936 140.92 123.227 141.403C123.517 141.887 123.921 142.27 124.44 142.55C124.957 142.831 125.586 142.971 126.324 142.971C126.957 142.971 127.506 142.87 127.972 142.669C128.437 142.466 128.797 142.177 129.053 141.797C129.306 141.42 129.435 140.976 129.435 140.467C129.435 139.887 129.299 139.408 129.026 139.03C128.753 138.653 128.381 138.332 127.905 138.067C127.431 137.804 126.887 137.571 126.271 137.369C125.656 137.167 125.005 136.951 124.321 136.723C122.861 136.231 121.764 135.602 121.025 134.838C120.287 134.074 119.918 133.05 119.918 131.767C119.918 130.694 120.172 129.772 120.682 128.998C121.193 128.225 121.908 127.623 122.831 127.194C123.753 126.763 124.821 126.547 126.034 126.547C127.247 126.547 128.342 126.767 129.263 127.206C130.185 127.646 130.915 128.256 131.451 129.037C131.987 129.82 132.263 130.755 132.281 131.846H128.906C128.889 131.389 128.766 130.963 128.537 130.567C128.309 130.172 127.978 129.846 127.548 129.591C127.117 129.338 126.595 129.209 125.98 129.209C125.452 129.192 124.982 129.275 124.569 129.461C124.156 129.644 123.832 129.908 123.594 130.251C123.357 130.594 123.239 131.021 123.239 131.531C123.239 132.041 123.347 132.43 123.567 132.757C123.787 133.082 124.108 133.354 124.53 133.574C124.952 133.794 125.444 134 126.006 134.194C126.568 134.387 127.184 134.597 127.852 134.827C128.766 135.126 129.596 135.49 130.343 135.92C131.091 136.351 131.683 136.909 132.123 137.594C132.562 138.279 132.782 139.167 132.782 140.257C132.782 141.206 132.535 142.089 132.043 142.907C131.552 143.724 130.832 144.383 129.882 144.884C128.933 145.384 127.746 145.635 126.323 145.635L126.324 145.634Z" fill="white"/>
</svg>
