<svg width="166" height="186" viewBox="0 0 166 186" fill="none" xmlns="http://www.w3.org/2000/svg">
<path d="M82.4027 10.8807C108.249 10.8807 131.343 22.9158 146.379 41.6807H159.843C143.21 16.5789 114.71 0 82.4027 0C50.0951 0 21.6202 16.5789 4.9873 41.6807H18.4509C33.4868 22.9158 56.5566 10.8807 82.4273 10.8807H82.4027Z" fill="white"/>
<path d="M82.4027 174.681C56.5566 174.681 33.4622 162.646 18.4263 143.881H4.9873C21.6202 168.982 50.1197 185.561 82.4273 185.561C114.735 185.561 143.234 168.982 159.867 143.881H146.404C131.368 162.646 108.298 174.681 82.4273 174.681H82.4027Z" fill="white"/>
<path d="M107.758 106.965H98.5936L77.9806 77.958V106.965H65.77V53.5439H74.9341L95.5471 82.551V53.5439H107.758V106.965ZM150.482 106.965H116.897V53.5439H150.089V65.2843H129.108V74.1264H148.197V85.7194H129.108V95.1755H150.482V106.916V106.965Z" fill="white"/>
<path d="M31.1283 108.046C38.8674 108.046 45.4272 105.368 50.8323 100.039C56.2374 94.7088 58.9153 88.1018 58.9153 80.2667C58.9153 72.4317 56.2128 65.8492 50.8323 60.4948C45.4272 55.165 38.8674 52.4878 31.1283 52.4878C23.3892 52.4878 16.8294 55.165 11.4244 60.4948C6.01928 65.8246 3.34131 72.4317 3.34131 80.2667C3.34131 88.1018 6.04385 94.6843 11.4244 100.039C16.8294 105.368 23.3892 108.046 31.1283 108.046ZM19.9988 68.8211C22.9716 65.8738 26.6814 64.4001 31.1037 64.4001C35.5261 64.4001 39.2359 65.8738 42.2087 68.8211C45.1815 71.7685 46.6802 75.5755 46.6802 80.2667C46.6802 84.958 45.1815 88.765 42.2087 91.7124C39.2359 94.6597 35.5261 96.1334 31.1037 96.1334C26.6814 96.1334 22.9716 94.6597 19.9988 91.7124C17.026 88.765 15.5273 84.958 15.5273 80.2667C15.5273 75.5755 17.026 71.7685 19.9988 68.8211Z" fill="white"/>
<path d="M95.5225 82.551L74.9341 53.5439H65.77V106.965H77.9806V77.9825L98.5936 106.965H107.758V53.5439H95.5225V82.551Z" fill="white"/>
<path d="M129.108 85.7439H148.197V74.151H129.108V65.3089H150.114V53.5439H116.897V106.965H150.482V95.2246H129.108V85.7439Z" fill="white"/>
<path d="M161.784 58.186C161.784 57.6948 161.612 57.3018 161.243 56.9825C160.875 56.6878 160.433 56.5159 159.917 56.5159H157.607V61.379H159.327V60.1018H159.597L160.236 61.379H162.079L161.096 59.6597C161.538 59.2913 161.759 58.7755 161.759 58.1615L161.784 58.186ZM159.646 58.751H159.327V58.0632H159.646C159.917 58.0632 160.064 58.186 160.064 58.4071C160.064 58.6282 159.917 58.751 159.646 58.751Z" fill="white"/>
<path d="M159.843 53.5439C156.87 53.5439 154.438 55.9755 154.438 58.9475C154.438 61.9194 156.87 64.351 159.843 64.351C162.816 64.351 165.248 61.9194 165.248 58.9475C165.248 55.9755 162.816 53.5439 159.843 53.5439ZM159.843 63.0738C157.583 63.0738 155.74 61.2317 155.74 58.972C155.74 56.7124 157.583 54.8703 159.843 54.8703C162.103 54.8703 163.946 56.7124 163.946 58.972C163.946 61.2317 162.103 63.0738 159.843 63.0738Z" fill="white"/>
<path d="M3.09563 130.249H9.09036V133.197H0V117.502H3.09563V130.225V130.249Z" fill="white"/>
<path d="M21.5957 133.197L20.5883 130.372H14.1514L13.2178 133.197H9.87646L15.3798 117.502H19.2125L24.7404 133.197H21.5957ZM15.1587 127.498H19.581L17.3207 121.088L15.1587 127.498Z" fill="white"/>
<path d="M35.4769 117.502V120.449H31.2511V133.172H28.1555V120.449H23.9297V117.502H35.4769Z" fill="white"/>
<path d="M46.3854 133.197L45.3781 130.372H38.9412L38.0076 133.197H34.6663L40.1696 117.502H44.0023L49.5302 133.197H46.3854ZM39.9485 127.498H44.3708L42.1105 121.088L39.9485 127.498Z" fill="white"/>
<path d="M66.4088 117.502V133.197H63.3377V123.028L58.9154 130.298H58.5469L54.1491 123.053V133.197H51.0535V117.502H54.2474L58.7434 124.919L63.2149 117.502H66.4088Z" fill="white"/>
<path d="M80.7814 117.502C82.2801 117.502 83.5576 118.018 84.5895 119.025C85.6214 120.032 86.1373 121.284 86.1373 122.758C86.1373 124.232 85.6214 125.484 84.5895 126.491C83.5576 127.498 82.2801 128.014 80.7814 128.014H78.0297V133.172H74.9341V117.477H80.7814V117.502ZM80.7814 125.165C81.4447 125.165 81.9852 124.944 82.4275 124.477C82.8697 124.011 83.0663 123.446 83.0663 122.783C83.0663 122.119 82.8451 121.53 82.4275 121.088C81.9852 120.646 81.4447 120.425 80.7814 120.425H78.0297V125.165H80.7814Z" fill="white"/>
<path d="M97.0702 117.502H100.141V133.197H97.0702V126.688H91.2475V133.197H88.1519V117.502H91.2475V123.741H97.0702V117.502Z" fill="white"/>
<path d="M113.384 133.197L112.376 130.372H105.939L105.006 133.197H101.665L107.168 117.502H111.001L116.529 133.197H113.384ZM106.947 127.498H111.369L109.109 121.088L106.947 127.498Z" fill="white"/>
<path d="M126.651 133.197L123.481 127.744H121.147V133.197H118.052V117.502H124.317C125.766 117.502 126.995 118.018 128.027 119.025C129.034 120.032 129.55 121.26 129.55 122.709C129.55 123.691 129.28 124.576 128.714 125.411C128.174 126.246 127.437 126.86 126.528 127.277L129.992 133.197H126.651ZM121.123 120.4V125.042H124.317C124.906 125.042 125.398 124.821 125.815 124.355C126.233 123.888 126.454 123.348 126.454 122.709C126.454 122.07 126.233 121.53 125.815 121.063C125.398 120.621 124.906 120.4 124.317 120.4H121.123Z" fill="white"/>
<path d="M147.165 117.502V133.197H144.094V123.028L139.672 130.298H139.303L134.906 123.053V133.197H131.81V117.502H135.004L139.5 124.919L143.971 117.502H147.165Z" fill="white"/>
<path d="M160.383 133.197L159.376 130.372H152.939L152.005 133.197H148.664L154.167 117.502H158L163.528 133.197H160.383ZM153.946 127.498H158.369L156.108 121.088L153.946 127.498Z" fill="white"/>
</svg>
