<svg width="158" height="186" viewBox="0 0 158 186" fill="none" xmlns="http://www.w3.org/2000/svg">
<path d="M77.44 10.8807C103.286 10.8807 126.381 22.9158 141.416 41.6807H154.88C138.247 16.5789 109.748 0 77.44 0C45.1324 0 16.6329 16.5789 0 41.6807H13.4636C28.4995 22.9158 51.5693 10.8807 77.44 10.8807Z" fill="white"/>
<path d="M77.44 174.681C51.5939 174.681 28.4995 162.646 13.4636 143.881H0C16.6329 168.982 45.1324 185.561 77.44 185.561C109.748 185.561 138.247 168.982 154.88 143.881H141.416C126.381 162.646 103.311 174.681 77.44 174.681Z" fill="white"/>
<path d="M32.7743 146.951C28.6468 146.951 25.4775 145.821 23.2909 143.586C20.3672 140.835 18.8931 136.856 18.8931 131.649C18.8931 126.442 20.3672 122.365 23.2909 119.712C25.4775 117.453 28.6222 116.347 32.7743 116.347C36.9264 116.347 40.0712 117.477 42.2578 119.712C45.1814 122.365 46.631 126.344 46.631 131.649C46.631 136.954 45.1814 140.811 42.2578 143.586C40.0712 145.846 36.9018 146.951 32.7743 146.951ZM38.4988 139.19C39.8992 137.421 40.5871 134.916 40.5871 131.649C40.5871 128.382 39.8746 125.902 38.4742 124.133C37.0738 122.365 35.1575 121.481 32.7743 121.481C30.3912 121.481 28.4748 122.365 27.0498 124.133C25.6249 125.902 24.9124 128.407 24.9124 131.674C24.9124 134.94 25.6249 137.446 27.0498 139.214C28.4748 140.983 30.3912 141.867 32.7743 141.867C35.1575 141.867 37.0738 140.983 38.4742 139.214L38.4988 139.19Z" fill="white"/>
<path d="M74.6391 146.165H68.5953L56.7778 125.632V146.165H51.1516V117.256H57.4903L69.0129 137.446V117.256H74.6391V146.165Z" fill="white"/>
<path d="M100.682 144.004C98.5197 145.968 95.768 146.975 92.4021 146.975C88.25 146.975 84.9824 145.649 82.5993 142.972C80.2161 140.295 79.0369 136.611 79.0369 131.944C79.0369 126.884 80.3881 123.004 83.0907 120.277C85.4492 117.895 88.4466 116.716 92.0827 116.716C96.9473 116.716 100.51 118.312 102.77 121.505C104.023 123.298 104.686 125.091 104.76 126.909H98.7162C98.3231 125.533 97.8072 124.477 97.193 123.765C96.0874 122.512 94.4659 121.874 92.3039 121.874C90.1418 121.874 88.3729 122.758 87.0953 124.526C85.8178 126.295 85.179 128.8 85.179 132.042C85.179 135.284 85.8423 137.716 87.1936 139.337C88.5449 140.958 90.2401 141.768 92.3039 141.768C94.3676 141.768 96.0383 141.081 97.1439 139.681C97.7581 138.944 98.274 137.814 98.6671 136.316H104.662C104.146 139.46 102.795 142.039 100.657 144.004H100.682Z" fill="white"/>
<path d="M122.105 146.951C117.978 146.951 114.809 145.821 112.622 143.586C109.698 140.835 108.224 136.856 108.224 131.649C108.224 126.442 109.698 122.365 112.622 119.712C114.809 117.453 117.953 116.347 122.105 116.347C126.257 116.347 129.402 117.477 131.589 119.712C134.512 122.365 135.962 126.344 135.962 131.649C135.962 136.954 134.512 140.811 131.589 143.586C129.402 145.846 126.233 146.951 122.105 146.951ZM127.805 139.19C129.206 137.421 129.894 134.916 129.894 131.649C129.894 128.382 129.181 125.902 127.781 124.133C126.38 122.365 124.464 121.481 122.081 121.481C119.698 121.481 117.781 122.365 116.356 124.133C114.931 125.902 114.219 128.407 114.219 131.674C114.219 134.94 114.931 137.446 116.356 139.214C117.781 140.983 119.698 141.867 122.081 141.867C124.464 141.867 126.38 140.983 127.781 139.214L127.805 139.19Z" fill="white"/>
<path d="M42.1595 105.123H48.8667V108.439H38.6953V90.8772H42.1595V105.147V105.123Z" fill="white"/>
<path d="M62.8708 108.414L61.7653 105.246H54.5421L53.4856 108.414H49.7512L55.8934 90.8525H60.1928L66.3841 108.414H62.8708ZM55.6722 102.028H60.6105L58.08 94.856L55.6722 102.028Z" fill="white"/>
<path d="M78.4472 90.8525V94.1683H73.7055V108.439H70.2413V94.1683H65.5242V90.8525H78.4472Z" fill="white"/>
<path d="M90.6577 108.414L89.5521 105.246H82.3289L81.2725 108.414H77.5381L83.6802 90.8525H87.9797L94.171 108.414H90.6577ZM83.4345 102.028H88.3728L85.8422 94.856L83.4345 102.028Z" fill="white"/>
<path d="M113.064 90.8525V108.414H109.625V97.0174L104.662 105.172H104.269L99.3304 97.0666V108.414H95.8662V90.8525H99.4286L104.465 99.1543L109.477 90.8525H113.064Z" fill="white"/>
<path d="M100.584 82.9439H93.2376L76.7275 59.7088V82.9439H66.9492V40.158H74.2952L90.8053 63.393V40.158H100.584V82.9439ZM134.832 82.9439H107.93V40.158H134.537V49.565H117.732V56.6632H133.014V65.9474H117.732V73.5369H134.857V82.9439H134.832Z" fill="white"/>
<path d="M39.1868 83.8036C45.3781 83.8036 50.6357 81.6668 54.9598 77.3931C59.2839 73.1194 61.4459 67.8387 61.4459 61.551C61.4459 55.2633 59.2839 50.0071 54.9598 45.7089C50.6357 41.4352 45.3781 39.2983 39.1868 39.2983C32.9955 39.2983 27.7379 41.4352 23.4138 45.7089C19.0898 49.9826 16.9277 55.2633 16.9277 61.551C16.9277 67.8387 19.0898 73.0948 23.4138 77.3931C27.7379 81.6668 32.9955 83.8036 39.1868 83.8036ZM30.293 52.365C32.6761 50.0071 35.6489 48.8282 39.1868 48.8282C42.7247 48.8282 45.6975 50.0071 48.0806 52.365C50.4638 54.7229 51.6676 57.7931 51.6676 61.5264C51.6676 65.2597 50.4638 68.3299 48.0806 70.6878C45.6975 73.0457 42.7247 74.2247 39.1868 74.2247C35.6489 74.2247 32.6761 73.0457 30.293 70.6878C27.9098 68.3299 26.706 65.2597 26.706 61.5264C26.706 57.7931 27.9098 54.7229 30.293 52.365Z" fill="white"/>
<path d="M90.8053 63.3685L74.2952 40.158H66.9492V82.9439H76.7275V59.7088L93.2376 82.9439H100.584V40.158H90.8053V63.3685Z" fill="white"/>
<path d="M117.708 65.9474H132.989V56.6632H117.708V49.565H134.513V40.158H107.929V82.9439H134.832V73.5369H117.708V65.9474Z" fill="white"/>
<path d="M152.669 6.53328C152.669 5.84556 152.399 5.28065 151.883 4.83855C151.367 4.39644 150.753 4.19995 150.04 4.19995H146.772V11.0526H149.205V9.2596H149.598L150.482 11.0526H153.087L151.711 8.64557C152.35 8.10521 152.644 7.41749 152.644 6.53328H152.669ZM149.672 7.29469H149.229V6.31223H149.672C150.065 6.31223 150.261 6.48416 150.261 6.80346C150.261 7.12276 150.065 7.29469 149.672 7.29469Z" fill="white"/>
<path d="M149.942 0C145.74 0 142.325 3.41404 142.325 7.61404C142.325 11.814 145.74 15.2281 149.942 15.2281C154.143 15.2281 157.558 11.814 157.558 7.61404C157.558 3.41404 154.143 0 149.942 0ZM149.942 13.386C146.748 13.386 144.168 10.7825 144.168 7.61404C144.168 4.44561 146.772 1.84211 149.942 1.84211C153.111 1.84211 155.715 4.44561 155.715 7.61404C155.715 10.7825 153.111 13.386 149.942 13.386Z" fill="white"/>
</svg>
