<svg width="434" height="162" viewBox="0 0 434 162" fill="none" xmlns="http://www.w3.org/2000/svg">
<path d="M71.5389 94.1694C68.0993 89.3308 64.3895 85.1062 60.2128 81.0536C39.9192 61.3799 20.0924 67.7413 0.413014 84.1975C0.0936228 82.6992 0.314743 81.3483 0.339311 79.8501L0.486716 55.6571C0.486716 52.8326 0.781569 50.3027 1.59233 47.6255C3.23842 42.2711 6.01468 37.408 9.89651 33.3799C11.518 31.7097 13.1395 30.2361 15.2032 29.0571L61.171 3.02203C68.3942 -1.07973 82.2508 -1.00604 89.4985 3.24308L134.95 29.8185C137.309 31.194 139.152 32.9624 140.945 34.9519C144.286 38.7097 146.669 43.0571 148.217 47.8711C149.274 51.1624 149.47 54.3799 149.421 57.8185L149.347 64.5238L143.181 72.9729C138.488 79.408 133.648 85.5975 128.169 91.4185C117.187 103.11 105.222 113.573 91.9062 122.955L71.5143 94.2185L71.5389 94.1694Z" fill="white"/>
<path d="M14.8592 131.92C6.99732 127.303 0.535767 116.225 0.240944 107.31C-0.0293096 106.131 -0.127584 104.952 0.240944 103.748V89.9693C7.85719 83.4114 16.4808 76.829 26.2345 74.2009C43.5062 69.6079 55.0042 81.0536 65.0773 93.1378C69.1066 98.0009 72.7673 102.913 76.3789 108.12L88.3682 125.338C74.0448 134.843 58.5175 143.022 41.9583 147.787L14.8838 131.92H14.8592Z" fill="white"/>
<path d="M110.21 146.264C104.19 140.197 99.375 133.369 94.363 126.369C105.001 118.903 114.804 110.896 123.968 101.931C130.135 95.8886 135.982 89.7237 141.142 82.8465L149.323 71.8921L148.979 108.341C148.905 116.471 142.075 127.843 134.926 132.215L110.21 146.289V146.264Z" fill="white"/>
<path d="M433.089 69.4116C433.532 74.7414 433.286 80.5871 431.296 85.6467C428.446 92.8923 421.542 96.773 413.877 96.773H399.75C397.661 96.773 395.745 96.4537 393.804 95.8643C385.967 93.4818 383.584 86.1134 383.289 78.573V30.2607H392.699V50.3028L413.434 50.352C416.039 50.352 418.422 50.6958 420.83 51.5309C428.814 54.3555 432.45 61.2572 433.114 69.3871L433.089 69.4116ZM422.869 80.8327C424.146 76.0923 424.171 70.9344 422.844 66.1941C421.984 63.0993 419.822 60.8888 416.825 60.0046C415.375 59.5625 413.975 59.366 412.452 59.366H392.699V77.4923C392.699 79.3344 393.018 81.0537 393.632 82.7239C394.885 86.3099 398.693 87.6362 402.182 87.6362H412.968C417.513 87.6362 421.591 85.4993 422.869 80.8081V80.8327Z" fill="white"/>
<path d="M218.115 66.7099C223.864 68.5028 226.247 72.0642 229.023 77.0502L239.17 96.7976H227.525L217.967 78.3274C217.132 76.9274 216.37 75.6256 215.167 74.5204C213.422 73.0467 211.236 72.4327 208.877 72.2607C204.651 71.9414 200.548 72.0151 196.249 72.0151V96.7976H185.807V37.5063H196.224V62.5835H204.75C206.297 62.5835 207.821 62.4853 209.344 62.2151C212.292 61.8467 214.405 60.1274 215.879 57.5239L226.173 37.5063H237.377L227.647 56.787C226.394 59.0467 225.117 61.0853 223.397 62.952C221.947 64.5484 220.252 65.5309 218.115 66.7344V66.7099Z" fill="white"/>
<path d="M338.009 96.7729C331.965 96.7729 326.364 94.7588 324.202 88.7167C322.949 85.1799 322.9 81.3483 323.833 77.7132C325.43 71.3764 331.892 69.2886 337.813 69.2641L360.907 69.215C360.981 65.8255 361.349 62.2641 358.229 60.3483C356.878 59.5132 355.404 59.4641 353.807 59.3658H326.069V50.3518H354.519C360.981 50.4009 367.27 53.0536 369.26 59.5378C369.776 61.2325 370.12 62.9027 370.12 64.7448V88.1518C370.12 91.5904 369.506 94.9553 365.894 96.0851C364.396 96.5518 362.897 96.7974 361.251 96.7974H338.034L338.009 96.7729ZM358.892 87.7097C360.145 87.5132 360.932 86.7518 360.932 85.5729V76.6571L338.058 76.7308C336.56 76.7308 335.061 77.1729 334.004 78.0816C332.653 79.2851 332.358 81.0536 332.481 82.7974C332.678 85.5483 334.692 87.6115 337.591 87.6115L358.892 87.7097Z" fill="white"/>
<path d="M257.94 87.5869L287.84 87.7097V96.7974L258.481 96.7729C251.97 96.7729 245.828 93.7518 243.985 87.2185C243.543 85.6711 243.248 84.1483 243.248 82.5027V64.7202C243.248 62.6816 243.666 60.7658 244.354 58.8746C246.565 52.7588 252.707 50.3518 258.898 50.3518H274.966C281.059 50.3518 287.005 52.1939 289.142 58.4079C291.403 64.9167 290.346 74.3974 282.386 76.9027C280.175 77.5904 277.988 77.9343 275.605 77.9588H252.363C252.339 79.6044 252.216 81.0781 252.461 82.6746C252.879 85.3518 254.894 87.5869 257.94 87.5869ZM275.875 70.5413C278.897 70.5413 280.814 68.3308 280.936 65.629C281.035 63.6641 280.519 61.7974 278.922 60.5939C277.718 59.6851 276.195 59.3904 274.671 59.3904H259.193C257.67 59.3904 256.147 59.636 254.894 60.4711C251.602 62.6571 252.437 67.0044 252.388 70.6641L275.9 70.5413H275.875Z" fill="white"/>
<path d="M78.2705 161.468H70.7772C67.0919 160.903 63.4803 160.338 60.2372 158.446L47.0439 150.734C63.1609 145.625 76.993 138.134 90.8742 128.825C95.837 135.727 100.849 142.162 106.352 148.475L88.5402 158.569C85.2971 160.215 81.9804 161.001 78.2705 161.492V161.468Z" fill="white"/>
<path d="M310.885 96.7239L301.5 96.8221V30.2607L310.885 30.2853V96.7239Z" fill="white"/>
<path d="M210.179 131.011H193.915L189.001 144.324C188.018 144.447 187.158 144.422 185.881 144.324L200.081 105.664H203.718L218.532 144.299C217.378 144.447 216.346 144.373 215.216 144.348L210.179 130.987V131.011ZM209.123 128.138L203.472 113.18L201.826 108.734L194.971 128.138H209.123Z" fill="white"/>
<path d="M409.7 136.71C409.675 129.931 415.99 127.917 421.468 127.892L427.954 127.843C428.028 126.37 428.053 124.97 427.881 123.52C427.267 118.706 421.96 118.092 418.176 118.927C415.818 119.443 414.368 121.31 413.975 123.717C413.017 123.938 412.108 123.84 411.076 123.791C411.395 120.131 413.778 117.282 417.365 116.447C419.994 115.833 422.648 115.882 425.276 116.57C428.446 117.405 430.731 120.033 430.755 123.422L430.854 138.331C430.854 140.419 430.903 142.31 431.222 144.348C430.288 144.471 429.429 144.471 428.495 144.348C428.102 143.071 428.2 141.868 427.954 140.443C425.67 144.791 420.142 145.773 415.768 144.692C412.059 143.759 409.749 140.615 409.725 136.734L409.7 136.71ZM422.77 141.941C427.856 140.32 428.102 134.77 428.004 130.299L421.223 130.348C419.405 130.348 417.636 130.668 416.039 131.38C413.901 132.24 412.771 134.131 412.673 136.391C412.575 139.313 414.393 141.745 417.316 142.31C419.085 142.654 420.903 142.506 422.746 141.966L422.77 141.941Z" fill="white"/>
<path d="M264.967 136.71C264.942 129.931 271.232 127.917 276.711 127.892L283.197 127.843C283.369 124.503 283.59 120.425 279.61 119.148C277.3 118.411 274.721 118.387 272.436 119.271C270.569 119.983 269.61 121.752 269.193 123.692C268.259 123.938 267.325 123.84 266.343 123.766C266.613 120.204 268.972 117.355 272.46 116.496C275.187 115.808 277.939 115.857 280.666 116.618C283.664 117.454 285.948 119.959 285.973 123.201L286.096 139.632C286.096 141.278 286.219 142.752 286.44 144.348C285.506 144.447 284.646 144.471 283.737 144.348C283.32 143.071 283.467 141.868 283.172 140.468C280.961 144.815 275.31 145.773 270.986 144.692C267.301 143.759 264.991 140.615 264.967 136.734V136.71ZM278.013 141.941C283.098 140.345 283.418 134.769 283.246 130.275L276.49 130.324C274.794 130.324 273.124 130.618 271.6 131.232C269.34 132.043 268.038 133.983 267.964 136.366C267.866 139.362 269.758 141.818 272.755 142.31C274.475 142.604 276.219 142.457 278.013 141.941Z" fill="white"/>
<path d="M242.044 118.78C238.801 118.854 236.222 120.524 234.92 123.348C234.109 125.092 233.618 126.984 233.618 128.998L233.544 144.373C232.536 144.422 231.75 144.422 230.743 144.373L230.694 116.717C231.603 116.619 232.487 116.643 233.396 116.692L233.74 121.359C235.141 118.534 237.401 116.692 240.423 116.226C244.919 115.513 249.44 116.791 251.184 121.261C251.7 122.562 252.044 123.938 252.044 125.387V144.398C251.037 144.471 250.25 144.471 249.268 144.398L249.194 125.78C249.194 123.864 248.531 122.022 247.302 120.671C246 119.222 244.108 118.78 242.069 118.829L242.044 118.78Z" fill="white"/>
<path d="M385.623 142.015C390.34 143.366 394.369 141.278 395.966 136.292C396.9 136.12 397.809 136.169 398.841 136.268C397.465 141.598 394.001 144.987 388.203 145.085C383.461 145.159 379.358 142.58 377.589 138.085C375.697 133.32 375.746 127.819 377.736 123.127C379.776 118.313 384.198 115.734 389.284 116.029C394.32 116.324 398.251 119.787 398.841 124.896C397.833 124.896 396.974 124.994 395.991 124.847C395.352 123.054 394.64 121.187 392.969 120.082C388.448 117.085 382.429 119.05 380.414 124.134C378.768 128.261 378.768 132.976 380.463 137.078C381.471 139.534 383.412 141.401 385.623 142.04V142.015Z" fill="white"/>
<path d="M347.96 141.843C348.107 142.678 348.107 143.464 347.96 144.348C345.011 145.134 340.81 145.257 339.533 141.794C339.189 140.812 339.041 139.829 339.017 138.724V119.345L333.955 119.296C333.833 118.436 333.857 117.576 333.955 116.692L338.967 116.643L339.041 108.071C339.975 107.997 340.908 107.973 341.817 108.071L341.867 116.594L348.402 116.643C348.525 117.503 348.476 118.289 348.402 119.247L341.817 119.32V137.594C341.817 138.478 341.94 139.289 342.186 140.075C342.923 142.555 345.626 142.162 347.935 141.769L347.96 141.843Z" fill="white"/>
<path d="M304.277 144.324C303.196 144.447 302.409 144.422 301.451 144.324V103.601C302.409 103.478 303.196 103.552 304.277 103.576V144.299V144.324Z" fill="white"/>
<path d="M322.359 144.324C321.401 144.471 320.516 144.397 319.534 144.373V116.717C320.541 116.643 321.376 116.643 322.359 116.717V144.324Z" fill="white"/>
<path d="M363.167 144.299C362.209 144.496 361.349 144.422 360.342 144.348V116.717C361.349 116.619 362.209 116.619 363.167 116.717V144.299Z" fill="white"/>
<path d="M322.384 111.731C321.303 111.829 320.394 111.854 319.312 111.731L326.806 103.11C328.059 103.061 329.214 102.987 330.491 103.159L322.359 111.755L322.384 111.731Z" fill="white"/>
<path d="M363.167 108.955C362.184 109.078 361.349 109.029 360.342 109.004V103.625H363.093L363.167 108.98V108.955Z" fill="white"/>
</svg>
