<svg width="278" height="156" viewBox="0 0 278 156" fill="none" xmlns="http://www.w3.org/2000/svg">
<path d="M119.895 32.8632C119.526 32.6913 119.133 32.765 118.863 33.0106C118.666 33.1825 118.592 33.4036 118.592 33.4036C118.445 33.7966 118.543 34.2141 118.887 34.5088L131.417 44.4317L134.292 39.6667L119.87 32.8878L119.895 32.8632ZM119.01 33.379C119.108 33.1825 119.428 32.9615 119.772 33.1334L133.653 39.8141L132.253 41.7053L119.01 33.379Z" fill="white"/>
<path d="M0 148.326C0 144.421 2.94824 141.547 6.92834 141.547C8.82012 141.547 10.5153 142.161 11.6701 143.389L11.0558 144.028C9.90112 142.898 8.52532 142.456 6.95294 142.456C3.53791 142.456 0.958209 144.961 0.958209 148.326C0.958209 151.691 3.53791 154.196 6.95294 154.196C8.52532 154.196 9.90112 153.73 11.0558 152.6L11.6701 153.239C10.5153 154.491 8.79555 155.105 6.92834 155.105C2.94824 155.105 0 152.232 0 148.326Z" fill="white"/>
<path d="M21.6694 148.67V154.982H20.7604V153.214C20.1216 154.368 18.9177 155.056 17.1733 155.056C14.9376 155.056 13.5864 153.902 13.5864 152.207C13.5864 150.709 14.5446 149.432 17.2963 149.432H20.7112V148.621C20.7112 146.779 19.704 145.772 17.7631 145.772C16.3873 145.772 15.1588 146.288 14.3235 147.024L13.8566 146.337C14.8394 145.453 16.2889 144.937 17.8367 144.937C20.2936 144.937 21.6694 146.189 21.6694 148.646M20.7112 152.06V150.193H17.3207C15.257 150.193 14.5446 151.053 14.5446 152.207C14.5446 153.509 15.5518 154.319 17.3207 154.319C19.0897 154.319 20.1707 153.509 20.7358 152.084" fill="white"/>
<path d="M26.5586 140.835H25.6006V154.982H26.5586V140.835Z" fill="white"/>
<path d="M30.2686 141.842C30.2686 141.425 30.6125 141.056 31.0548 141.056C31.497 141.056 31.841 141.4 31.841 141.818C31.841 142.235 31.497 142.604 31.0548 142.604C30.6125 142.604 30.2686 142.26 30.2686 141.842ZM30.588 145.035H31.5462V154.982H30.588V145.035Z" fill="white"/>
<path d="M45.4765 150.021C45.4765 152.993 43.3636 155.081 40.5628 155.081C38.7693 155.081 37.2707 154.196 36.4845 152.649V155.007H35.5754V140.86H36.5335V147.319C37.3443 145.821 38.8184 144.961 40.5874 144.961C43.3882 144.961 45.5011 147.025 45.5011 150.021M44.5429 150.021C44.5429 147.516 42.7985 145.821 40.5136 145.821C38.2287 145.821 36.5089 147.516 36.5089 150.021C36.5089 152.526 38.2287 154.221 40.5136 154.221C42.7985 154.221 44.5429 152.526 44.5429 150.021Z" fill="white"/>
<path d="M53.1663 144.961V145.895C53.1663 145.895 53.0189 145.895 52.9452 145.895C50.734 145.895 49.4073 147.368 49.4073 149.825V155.007H48.4492V145.06H49.3582V147.246C49.9725 145.797 51.2746 144.986 53.1663 144.986" fill="white"/>
<path d="M62.9939 148.67V154.982H62.0849V153.214C61.4461 154.368 60.2422 155.056 58.4978 155.056C56.2621 155.056 54.9109 153.902 54.9109 152.207C54.9109 150.709 55.8689 149.432 58.6206 149.432H62.0357V148.621C62.0357 146.779 61.0283 145.772 59.0874 145.772C57.7116 145.772 56.4832 146.288 55.6479 147.024L55.1811 146.337C56.1638 145.453 57.6134 144.937 59.1612 144.937C61.618 144.937 62.9939 146.189 62.9939 148.646M62.0357 152.06V150.193H58.6452C56.5814 150.193 55.8689 151.053 55.8689 152.207C55.8689 153.509 56.8763 154.319 58.6452 154.319C60.4141 154.319 61.4952 153.509 62.0603 152.084" fill="white"/>
<path d="M65.8682 150.021C65.8682 147.049 67.981 144.961 70.9047 144.961C72.4771 144.961 73.853 145.575 74.6883 146.804L73.9757 147.319C73.2633 146.312 72.1331 145.821 70.9047 145.821C68.5461 145.821 66.851 147.491 66.851 150.021C66.851 152.551 68.5707 154.221 70.9047 154.221C72.1577 154.221 73.2633 153.754 73.9757 152.723L74.6883 153.239C73.8776 154.442 72.5016 155.081 70.9047 155.081C67.981 155.081 65.8682 152.968 65.8682 150.021Z" fill="white"/>
<path d="M77.2434 141.842C77.2434 141.425 77.5874 141.056 78.0296 141.056C78.4719 141.056 78.8158 141.4 78.8158 141.818C78.8158 142.235 78.4719 142.604 78.0296 142.604C77.5874 142.604 77.2434 142.26 77.2434 141.842ZM77.5382 145.035H78.4964V154.982H77.5382V145.035Z" fill="white"/>
<path d="M81.4448 150.021C81.4448 147.074 83.5576 144.961 86.4322 144.961C89.3067 144.961 91.4196 147.074 91.4196 150.021C91.4196 152.968 89.3067 155.081 86.4322 155.081C83.5576 155.081 81.4448 152.968 81.4448 150.021ZM90.4122 150.021C90.4122 147.516 88.6926 145.821 86.4077 145.821C84.1228 145.821 82.403 147.516 82.403 150.021C82.403 152.526 84.1228 154.221 86.4077 154.221C88.6926 154.221 90.4122 152.526 90.4122 150.021Z" fill="white"/>
<path d="M103.262 149.186V155.007H102.303V149.26C102.303 147 101.1 145.821 99.085 145.821C96.7264 145.821 95.3015 147.319 95.3015 149.702V155.007H94.3433V145.06H95.2523V147.221C95.9156 145.821 97.316 144.986 99.2078 144.986C101.64 144.986 103.262 146.41 103.262 149.21" fill="white"/>
<path d="M115.644 150.242H107.07C107.168 152.6 108.912 154.221 111.295 154.221C112.548 154.221 113.728 153.754 114.489 152.821L115.03 153.46C114.145 154.54 112.77 155.081 111.271 155.081C108.249 155.081 106.136 152.968 106.136 150.021C106.136 147.074 108.175 144.961 110.902 144.961C113.629 144.961 115.644 147.025 115.644 149.972C115.644 150.046 115.644 150.144 115.644 150.242ZM107.094 149.505H114.735C114.588 147.344 113.04 145.797 110.927 145.797C108.814 145.797 107.266 147.319 107.119 149.505" fill="white"/>
<path d="M117.143 153.803L117.585 153.042C118.347 153.681 119.698 154.245 121.172 154.245C123.285 154.245 124.12 153.509 124.12 152.379C124.12 149.481 117.511 151.617 117.511 147.712C117.511 146.214 118.764 144.986 121.295 144.986C122.548 144.986 123.924 145.379 124.71 145.968L124.268 146.73C123.432 146.116 122.351 145.845 121.27 145.845C119.329 145.845 118.47 146.656 118.47 147.712C118.47 150.709 125.079 148.596 125.079 152.379C125.079 154 123.678 155.105 121.148 155.105C119.501 155.105 117.929 154.565 117.167 153.828" fill="white"/>
<path d="M142.35 155.179L140.434 153.165C139.353 154.442 137.83 155.081 135.987 155.081C133.456 155.081 131.638 153.73 131.638 151.74C131.638 150.193 132.547 149.039 135.102 147.54V147.491C133.726 146.091 133.358 145.305 133.358 144.274C133.358 142.628 134.586 141.547 136.527 141.547C138.321 141.547 139.476 142.505 139.476 144.077C139.476 145.404 138.689 146.312 136.429 147.639L140.385 151.814C140.802 151.077 141.122 150.168 141.343 149.112L142.129 149.358C141.883 150.586 141.49 151.618 140.974 152.428L142.964 154.54L142.399 155.179H142.35ZM139.844 152.551L135.618 148.105C133.26 149.505 132.547 150.389 132.547 151.667C132.547 153.239 133.948 154.27 136.011 154.27C137.584 154.27 138.911 153.705 139.844 152.526M135.839 147.098C137.928 145.87 138.616 145.182 138.616 144.126C138.616 143.07 137.879 142.309 136.527 142.309C135.102 142.309 134.267 143.119 134.267 144.298C134.267 145.133 134.586 145.747 135.864 147.098" fill="white"/>
<path d="M149.082 148.326C149.082 144.421 152.03 141.547 156.01 141.547C157.902 141.547 159.597 142.161 160.752 143.389L160.138 144.028C158.983 142.898 157.607 142.456 156.035 142.456C152.62 142.456 150.04 144.961 150.04 148.326C150.04 151.691 152.62 154.196 156.035 154.196C157.607 154.196 158.983 153.73 160.138 152.6L160.752 153.239C159.597 154.491 157.877 155.105 156.01 155.105C152.03 155.105 149.082 152.232 149.082 148.326Z" fill="white"/>
<path d="M170.751 148.67V154.982H169.842V153.214C169.203 154.368 168 155.056 166.255 155.056C164.02 155.056 162.668 153.902 162.668 152.207C162.668 150.709 163.626 149.432 166.378 149.432H169.793V148.621C169.793 146.779 168.786 145.772 166.845 145.772C165.469 145.772 164.241 146.288 163.405 147.024L162.938 146.337C163.921 145.453 165.371 144.937 166.919 144.937C169.375 144.937 170.751 146.189 170.751 148.646M169.793 152.06V150.193H166.403C164.339 150.193 163.626 151.053 163.626 152.207C163.626 153.509 164.634 154.319 166.403 154.319C168.172 154.319 169.253 153.509 169.818 152.084" fill="white"/>
<path d="M175.64 140.835H174.682V154.982H175.64V140.835Z" fill="white"/>
<path d="M179.35 141.842C179.35 141.425 179.694 141.056 180.137 141.056C180.579 141.056 180.923 141.4 180.923 141.818C180.923 142.235 180.579 142.604 180.137 142.604C179.694 142.604 179.35 142.26 179.35 141.842ZM179.67 145.035H180.628V154.982H179.67V145.035Z" fill="white"/>
<path d="M187.605 140.761C188.342 140.761 189.104 140.983 189.571 141.4L189.178 142.112C188.785 141.744 188.22 141.572 187.63 141.572C186.377 141.572 185.763 142.26 185.763 143.586V145.035H188.957V145.846H185.787V154.983H184.829V145.846H182.987V145.035H184.829V143.512C184.829 141.842 185.812 140.761 187.605 140.761ZM193.698 141.842C193.698 142.284 193.354 142.628 192.912 142.628C192.47 142.628 192.126 142.284 192.126 141.867C192.126 141.449 192.47 141.081 192.912 141.081C193.354 141.081 193.698 141.425 193.698 141.842ZM192.421 145.035H193.379V154.983H192.421V145.035Z" fill="white"/>
<path d="M196.327 150.021C196.327 147.049 198.44 144.961 201.364 144.961C202.936 144.961 204.312 145.575 205.147 146.804L204.435 147.319C203.722 146.312 202.592 145.821 201.364 145.821C199.005 145.821 197.31 147.491 197.31 150.021C197.31 152.551 199.03 154.221 201.364 154.221C202.617 154.221 203.722 153.754 204.435 152.723L205.147 153.239C204.336 154.442 202.961 155.081 201.364 155.081C198.44 155.081 196.327 152.968 196.327 150.021Z" fill="white"/>
<path d="M215.196 148.67V154.982H214.287V153.214C213.648 154.368 212.444 155.056 210.7 155.056C208.464 155.056 207.113 153.902 207.113 152.207C207.113 150.709 208.071 149.432 210.823 149.432H214.238V148.621C214.238 146.779 213.23 145.772 211.289 145.772C209.914 145.772 208.685 146.288 207.85 147.024L207.383 146.337C208.366 145.453 209.815 144.937 211.363 144.937C213.82 144.937 215.196 146.189 215.196 148.646M214.238 152.06V150.193H210.847C208.784 150.193 208.071 151.053 208.071 152.207C208.071 153.509 209.078 154.319 210.847 154.319C212.616 154.319 213.697 153.509 214.262 152.084" fill="white"/>
<path d="M218.07 150.021C218.07 147.049 220.183 144.961 223.107 144.961C224.679 144.961 226.055 145.575 226.89 146.804L226.178 147.319C225.465 146.312 224.335 145.821 223.107 145.821C220.748 145.821 219.053 147.491 219.053 150.021C219.053 152.551 220.773 154.221 223.107 154.221C224.36 154.221 225.465 153.754 226.178 152.723L226.89 153.239C226.08 154.442 224.704 155.081 223.107 155.081C220.183 155.081 218.07 152.968 218.07 150.021Z" fill="white"/>
<path d="M229.446 141.842C229.446 141.425 229.79 141.056 230.232 141.056C230.674 141.056 231.018 141.4 231.018 141.818C231.018 142.235 230.674 142.604 230.232 142.604C229.79 142.604 229.446 142.26 229.446 141.842ZM229.74 145.035H230.699V154.982H229.74V145.035Z" fill="white"/>
<path d="M233.647 150.021C233.647 147.074 235.76 144.961 238.634 144.961C241.509 144.961 243.622 147.074 243.622 150.021C243.622 152.968 241.509 155.081 238.634 155.081C235.76 155.081 233.647 152.968 233.647 150.021ZM242.639 150.021C242.639 147.516 240.919 145.821 238.634 145.821C236.349 145.821 234.629 147.516 234.629 150.021C234.629 152.526 236.349 154.221 238.634 154.221C240.919 154.221 242.639 152.526 242.639 150.021Z" fill="white"/>
<path d="M255.464 149.186V155.007H254.506V149.26C254.506 147 253.302 145.821 251.287 145.821C248.929 145.821 247.503 147.319 247.503 149.702V155.007H246.545V145.06H247.454V147.221C248.118 145.821 249.518 144.986 251.41 144.986C253.842 144.986 255.464 146.41 255.464 149.21" fill="white"/>
<path d="M267.846 150.242H259.272C259.37 152.6 261.114 154.221 263.497 154.221C264.75 154.221 265.93 153.754 266.691 152.821L267.232 153.46C266.347 154.54 264.972 155.081 263.473 155.081C260.451 155.081 258.338 152.968 258.338 150.021C258.338 147.074 260.377 144.961 263.104 144.961C265.832 144.961 267.846 147.025 267.846 149.972C267.846 150.046 267.846 150.144 267.846 150.242ZM259.296 149.505H266.937C266.79 147.344 265.242 145.797 263.129 145.797C261.016 145.797 259.468 147.319 259.321 149.505" fill="white"/>
<path d="M269.345 153.803L269.787 153.042C270.549 153.681 271.9 154.245 273.374 154.245C275.487 154.245 276.322 153.509 276.322 152.379C276.322 149.481 269.713 151.617 269.713 147.712C269.713 146.214 270.966 144.986 273.497 144.986C274.75 144.986 276.126 145.379 276.912 145.968L276.47 146.73C275.634 146.116 274.553 145.845 273.472 145.845C271.531 145.845 270.672 146.656 270.672 147.712C270.672 150.709 277.28 148.596 277.28 152.379C277.28 154 275.88 155.105 273.349 155.105C271.703 155.105 270.131 154.565 269.369 153.828" fill="white"/>
<path d="M0.221191 136.979L5.30689 99.3508H5.84733L20.4164 130.225L34.8873 99.3508H35.4279L40.5627 136.979H37.0248L33.5361 110.035L20.8587 136.979H19.9742L7.14953 109.839L3.6607 136.979H0.221191Z" fill="white"/>
<path d="M47.6875 99.3508H68.2513V103.06H51.299V114.8H68.1039V118.484H51.299V133.246H68.1039V136.979H47.6875V99.3508Z" fill="white"/>
<path d="M74.3689 136.979V99.3508H81.8131C86.8988 99.3508 90.6332 99.7438 93.0163 100.53C95.3995 101.316 97.4387 102.544 99.183 104.239C100.927 105.933 102.23 107.996 103.163 110.453C104.097 112.909 104.564 115.758 104.564 119.025C104.564 122.291 103.851 125.361 102.402 128.26C100.952 131.133 98.9866 133.319 96.5298 134.793C94.0483 136.267 90.4858 137.003 85.8424 137.003H74.4181L74.3689 136.979ZM77.8086 133.418H81.936C86.2601 133.418 89.4048 133.196 91.3457 132.73C93.2866 132.288 95.0064 131.379 96.456 130.028C97.9055 128.677 99.0356 127.056 99.7973 125.116C100.559 123.2 100.952 120.989 100.952 118.509C100.952 116.028 100.51 113.744 99.6253 111.632C98.7408 109.519 97.4879 107.8 95.8664 106.449C94.2448 105.098 92.3284 104.165 90.1173 103.698C87.9061 103.232 84.6631 102.986 80.3636 102.986H77.8086V133.393V133.418Z" fill="white"/>
<path d="M114.563 99.3508H110.976V136.979H114.563V99.3508Z" fill="white"/>
<path d="M118.298 104.656H126.332V136.979H131.81V104.656H139.77V99.3508H118.298V104.656Z" fill="white"/>
<path d="M164.265 117.477C166.452 115.561 167.557 112.982 167.557 109.789C167.557 108.119 167.214 106.572 166.55 105.172C165.887 103.772 164.953 102.642 163.799 101.758C162.644 100.874 161.268 100.26 159.696 99.8912C158.148 99.5228 155.421 99.3508 151.342 99.3508H143.308V136.979H148.738V120.326H149.401L162.275 136.979H169.105L156.158 120.302C159.622 120.13 162.373 119.196 164.314 117.477M153.971 114.996H148.689V104.656H154.094C156.87 104.656 158.909 105.074 160.162 105.933C161.366 106.744 161.956 108.021 161.956 109.839C161.956 111.656 161.366 112.933 160.113 113.744C158.811 114.603 156.747 115.021 153.947 114.972" fill="white"/>
<path d="M187.482 97.9019L169.695 136.979H175.69L188.367 109.225L195.443 124.428L201.241 136.979H207.014L189.497 97.9019H187.482Z" fill="white"/>
<path d="M241.312 126.81C237.971 130.691 234.015 132.656 229.519 132.656C225.023 132.656 221.289 131.281 218.463 128.554C215.638 125.828 214.213 122.414 214.213 118.337C214.213 114.26 215.663 110.796 218.562 107.996C221.436 105.196 224.925 103.772 228.905 103.772C233.794 103.772 237.946 105.81 241.288 109.839L241.632 110.256L245.784 107.039L245.464 106.596C243.548 103.944 241.14 101.881 238.29 100.505C235.44 99.1298 232.197 98.4175 228.61 98.4175C225.023 98.4175 221.633 99.2771 218.537 100.972C215.441 102.667 212.96 105.049 211.216 108.07C209.471 111.067 208.562 114.382 208.562 117.919C208.562 123.642 210.479 128.432 214.262 132.189C218.046 135.947 222.959 137.839 228.88 137.839C235.883 137.839 241.46 135.21 245.489 130.053L245.833 129.61L241.607 126.393L241.263 126.81H241.312Z" fill="white"/>
<path d="M258.608 116.347L276.863 99.3508H269.296L256.324 111.558V99.3508H250.82V136.979H256.324V121.677L270.721 136.979H277.969L258.608 116.347Z" fill="white"/>
<path d="M188.367 129.954C185.836 129.954 183.797 127.916 183.797 125.386C183.797 122.856 185.836 120.818 188.367 120.818C190.898 120.818 192.937 122.856 192.937 125.386C192.937 127.916 190.898 129.954 188.367 129.954Z" fill="white"/>
<path d="M195.983 37.1368H179.965C179.965 37.1368 179.915 36.9403 179.891 36.8421L182.618 35.2947L181.66 31.7579L178.54 31.807C177.925 29.9403 177.164 28.1228 176.279 26.4035L178.515 24.2175L176.672 21.0491L173.65 21.9088C172.569 20.2632 171.366 18.7403 170.088 17.2667L171.685 14.5649L169.081 11.9614L166.403 13.5825C164.953 12.3053 163.405 11.1018 161.759 10.0211L162.595 7L159.401 5.1579L157.239 7.41754C155.494 6.55789 153.701 5.79649 151.834 5.18246L151.883 2.0386L148.32 1.0807L146.797 3.80702C144.905 3.41403 142.964 3.16842 140.999 3.04561L140.213 0H136.527L135.766 3.04561C133.8 3.16842 131.859 3.41403 129.968 3.80702L128.42 1.0807L124.882 2.0386L124.931 5.1579C123.064 5.77193 121.27 6.53333 119.526 7.39298L117.339 5.1579L114.145 7L115.005 9.99649C113.384 11.0772 111.836 12.2807 110.362 13.5579L107.659 11.9614L105.055 14.5649L106.677 17.2421C105.399 18.6912 104.195 20.2386 103.114 21.8842L100.092 21.0491L98.2496 24.2421L100.51 26.4281C99.6501 28.1719 98.8884 29.9649 98.2496 31.8316H95.1295L94.1713 35.3439L96.9229 36.8667C96.9229 36.8667 96.8737 37.0632 96.8737 37.1614H80.8552V42H96.2105C96.2105 42.2211 96.1859 42.4421 96.1613 42.6632L93.1148 43.4491V47.1333L96.1613 47.8947C96.1613 48.2386 96.2105 48.607 96.2351 48.9754H80.8306V53.814H96.7263L94.1713 55.2386L95.1295 58.8L98.2496 58.7509C98.8638 60.6175 99.6255 62.4351 100.485 64.1544L98.2496 66.3403L100.092 69.5333L103.09 68.6737C104.171 70.3193 105.375 71.8421 106.677 73.3158L105.08 76.0175L107.684 78.621L110.362 77C111.812 78.3018 113.384 79.4807 115.005 80.5614L114.17 83.5825L117.364 85.4246L119.526 83.1649C121.27 84.0246 123.064 84.786 124.931 85.4V88.5439L128.444 89.4772L129.968 86.7509C131.859 87.1439 133.8 87.3895 135.766 87.5123L136.552 90.5579H140.237L140.999 87.5123C142.964 87.3895 144.905 87.1439 146.797 86.7509L148.345 89.4772L151.907 88.5193L151.858 85.4C153.725 84.786 155.519 84.0246 157.263 83.1649L159.45 85.4L162.644 83.5579L161.784 80.5614C163.405 79.4807 164.978 78.3018 166.427 77L169.13 78.5965L171.734 75.993L170.113 73.3158C171.415 71.8421 172.594 70.2947 173.7 68.6737L176.721 69.5088L178.564 66.3158L176.328 64.1544C177.188 62.4105 177.95 60.593 178.564 58.7263H181.684L182.643 55.214L180.112 53.814H195.983V48.9754H180.579C180.603 48.6316 180.628 48.2632 180.653 47.8947L183.699 47.1088V43.4246L180.653 42.6632C180.653 42.4421 180.652 42.2211 180.603 42H195.959V37.1614L195.983 37.1368ZM175.739 48.9263H175.69C175.518 50.5719 175.247 52.193 174.854 53.7649H174.903C171.046 70.3439 156.207 82.7228 138.444 82.7228C120.681 82.7228 105.841 70.3684 101.984 53.7649H102.033C101.665 52.193 101.37 50.5719 101.198 48.9263H101.149C101.026 47.7228 100.952 46.4947 100.952 45.2421C100.952 44.6772 100.952 44.0877 101.001 43.5228C101.787 23.5544 118.273 7.56491 138.419 7.56491C158.565 7.56491 175.051 23.5544 175.837 43.5228C175.862 44.0877 175.886 44.6526 175.886 45.2421C175.886 46.4947 175.812 47.7228 175.69 48.9263" fill="white"/>
<path d="M158.792 64.7257L158.079 65.437L162.33 69.6965L163.043 68.9852L158.792 64.7257Z" fill="white"/>
<path d="M160.58 62.7475L159.937 63.5227L164.571 67.3633L165.214 66.5881L160.58 62.7475Z" fill="white"/>
<path d="M162.117 60.6226L161.55 61.4548L166.525 64.8424L167.092 64.0102L162.117 60.6226Z" fill="white"/>
<path d="M163.462 58.3416L162.975 59.2236L168.247 62.1281L168.733 61.2461L163.462 58.3416Z" fill="white"/>
<path d="M164.582 55.9402L164.181 56.864L169.703 59.2596L170.104 58.3358L164.582 55.9402Z" fill="white"/>
<path d="M165.486 53.4573L165.174 54.4148L170.897 56.2803L171.209 55.3228L165.486 53.4573Z" fill="white"/>
<path d="M166.134 50.8987L165.913 51.8813L171.786 53.2002L172.007 52.2176L166.134 50.8987Z" fill="white"/>
<path d="M166.54 48.277L166.413 49.2759L172.384 50.0363L172.511 49.0374L166.54 48.277Z" fill="white"/>
<path d="M166.689 45.6289L166.656 46.6355L172.672 46.8308L172.705 45.8242L166.689 45.6289Z" fill="white"/>
<path d="M172.643 42.5949L166.635 42.9675L166.697 43.9726L172.705 43.6L172.643 42.5949Z" fill="white"/>
<path d="M172.233 39.4247L166.287 40.3599L166.443 41.3547L172.389 40.4195L172.233 39.4247Z" fill="white"/>
<path d="M171.527 36.2593L165.695 37.7507L165.945 38.7263L171.776 37.2349L171.527 36.2593Z" fill="white"/>
<path d="M170.552 33.22L164.887 35.2534L165.227 36.2012L170.892 34.1678L170.552 33.22Z" fill="white"/>
<path d="M169.295 30.2759L163.845 32.8313L164.273 33.743L169.722 31.1876L169.295 30.2759Z" fill="white"/>
<path d="M167.731 27.4579L162.547 30.5156L163.059 31.3829L168.243 28.3253L167.731 27.4579Z" fill="white"/>
<path d="M165.914 24.8003L161.041 28.3323L161.632 29.1476L166.506 25.6156L165.914 24.8003Z" fill="white"/>
<path d="M163.875 22.3047L159.357 26.2803L160.022 27.0362L164.541 23.0607L163.875 22.3047Z" fill="white"/>
<path d="M161.63 20.0571L157.505 24.4395L158.238 25.1296L162.363 20.7473L161.63 20.0571Z" fill="white"/>
<path d="M159.177 18.0092L155.482 22.7595L156.277 23.3777L159.972 18.6274L159.177 18.0092Z" fill="white"/>
<path d="M156.497 16.1933L153.266 21.2708L154.116 21.8112L157.346 16.7338L156.497 16.1933Z" fill="white"/>
<path d="M153.664 14.627L150.926 19.9858L151.823 20.444L154.561 15.0851L153.664 14.627Z" fill="white"/>
<path d="M150.709 13.3492L148.487 18.9419L149.423 19.3136L151.645 13.7209L150.709 13.3492Z" fill="white"/>
<path d="M147.664 12.3222L145.98 18.0994L146.947 18.3812L148.631 12.604L147.664 12.3222Z" fill="white"/>
<path d="M144.561 11.6485L143.427 17.5583L144.416 17.7481L145.55 11.8383L144.561 11.6485Z" fill="white"/>
<path d="M141.361 11.2308L140.789 17.2212L141.792 17.3168L142.364 11.3265L141.361 11.2308Z" fill="white"/>
<path d="M138.13 11.1226L138.124 17.1401L139.131 17.1412L139.137 11.1236L138.13 11.1226Z" fill="white"/>
<path d="M135.951 11.2347L134.948 11.3284L135.508 17.3198L136.511 17.2261L135.951 11.2347Z" fill="white"/>
<path d="M132.76 11.6571L131.771 11.8447L132.892 17.7569L133.882 17.5692L132.76 11.6571Z" fill="white"/>
<path d="M129.639 12.3339L128.671 12.6138L130.344 18.3941L131.312 18.1142L129.639 12.3339Z" fill="white"/>
<path d="M126.569 13.2996L125.632 13.6697L127.844 19.2662L128.781 18.8961L126.569 13.2996Z" fill="white"/>
<path d="M123.604 14.6158L122.706 15.072L125.433 20.4365L126.331 19.9803L123.604 14.6158Z" fill="white"/>
<path d="M120.801 16.1645L119.95 16.7034L123.171 21.787L124.022 21.2481L120.801 16.1645Z" fill="white"/>
<path d="M118.136 17.9591L117.34 18.5754L121.024 23.3341L121.821 22.7178L118.136 17.9591Z" fill="white"/>
<path d="M115.648 19.9947L114.913 20.6833L119.028 25.0743L119.764 24.3856L115.648 19.9947Z" fill="white"/>
<path d="M113.397 22.2761L112.73 23.0308L117.241 27.015L117.908 26.2603L113.397 22.2761Z" fill="white"/>
<path d="M111.342 24.7629L110.749 25.5769L115.615 29.119L116.208 28.305L111.342 24.7629Z" fill="white"/>
<path d="M109.548 27.4068L109.035 28.2729L114.213 31.3416L114.726 30.4754L109.548 27.4068Z" fill="white"/>
<path d="M108.007 30.2116L107.578 31.1223L113.021 33.6902L113.451 32.7795L108.007 30.2116Z" fill="white"/>
<path d="M106.714 33.1885L106.372 34.1357L112.033 36.18L112.375 35.2328L106.714 33.1885Z" fill="white"/>
<path d="M105.733 36.2303L105.482 37.2053L111.311 38.7079L111.562 37.7329L105.733 36.2303Z" fill="white"/>
<path d="M105.043 39.3472L104.885 40.3416L110.829 41.2891L110.987 40.2947L105.043 39.3472Z" fill="white"/>
<path d="M104.611 42.5456L104.547 43.5505L110.554 43.9347L110.618 42.9298L104.611 42.5456Z" fill="white"/>
<path d="M110.537 45.5598L104.521 45.7488L104.552 46.7553L110.569 46.5663L110.537 45.5598Z" fill="white"/>
<path d="M110.7 48.1863L104.727 48.9353L104.852 49.9345L110.825 49.1855L110.7 48.1863Z" fill="white"/>
<path d="M111.094 50.8346L105.219 52.1411L105.437 53.1241L111.313 51.8176L111.094 50.8346Z" fill="white"/>
<path d="M111.758 53.3899L106.031 55.2434L106.342 56.2015L112.068 54.348L111.758 53.3899Z" fill="white"/>
<path d="M112.644 55.872L107.117 58.2561L107.517 59.1807L113.043 56.7966L112.644 55.872Z" fill="white"/>
<path d="M113.748 58.2795L108.47 61.1729L108.955 62.0558L114.232 59.1624L113.748 58.2795Z" fill="white"/>
<path d="M115.644 61.4034L110.681 64.7684L110.116 63.9333L115.079 60.5684L115.644 61.4034Z" fill="white"/>
<path d="M116.641 62.7206L111.999 66.5515L112.641 67.3281L117.283 63.4972L116.641 62.7206Z" fill="white"/>
<path d="M118.388 64.6927L114.128 68.9441L114.84 69.6568L119.1 65.4054L118.388 64.6927Z" fill="white"/>
<path d="M138.173 36.8176C133.505 36.8176 129.697 40.6246 129.697 45.2913C129.697 49.958 133.505 53.765 138.173 53.765C142.841 53.765 146.649 49.958 146.649 45.2913C146.649 40.6246 142.841 36.8176 138.173 36.8176ZM138.173 51.2843C134.857 51.2843 132.154 48.5825 132.154 45.2668C132.154 41.951 134.857 39.2492 138.173 39.2492C141.49 39.2492 144.193 41.951 144.193 45.2668C144.193 48.5825 141.49 51.2843 138.173 51.2843Z" fill="white"/>
<path d="M138.173 40.772C135.692 40.772 133.653 42.786 133.653 45.2913C133.653 47.7965 135.667 49.8106 138.173 49.8106C140.679 49.8106 142.694 47.7965 142.694 45.2913C142.694 42.786 140.679 40.772 138.173 40.772Z" fill="white"/>
</svg>
