<svg width="130" height="138" viewBox="0 0 130 138" fill="none" xmlns="http://www.w3.org/2000/svg">
<path d="M124.956 81.2111H111.713V24.5233C111.713 24.0075 110.092 20.6426 109.649 19.9795C102.524 8.53385 84.3683 12.5619 83.0416 25.997C81.8132 38.2777 84.0244 52.4742 83.0416 64.9023C81.2727 87.3269 49.1862 86.8847 47.3681 66.0075C46.3117 53.9479 48.2526 40.39 47.3681 28.2075C46.6556 18.3339 38.4252 10.9409 28.3275 13.9619C24.2983 15.1654 18.3281 20.8883 18.3281 25.2602V81.2111H5.08569V24.8917C5.08569 21.3058 8.18133 14.7233 10.2942 11.7514C21.3009 -3.67315 44.9604 -3.55036 55.5249 12.3409C64.6398 26.0707 58.1046 48.7163 60.242 64.4847C60.9791 69.9128 68.5708 70.2321 69.7501 64.8532C70.438 52.2532 68.9147 38.8426 69.7501 26.3409C71.2242 4.48125 95.9647 -7.75033 113.826 5.4637C118.863 9.19704 124.882 18.4567 124.882 24.8917V81.2111H124.956Z" fill="white"/>
<path d="M96.9473 124.783H93.5323V110.194C93.5323 110.071 93.1146 109.187 92.9918 109.015C91.1492 106.067 86.4811 107.099 86.1372 110.562C85.8178 113.706 86.3829 117.366 86.1372 120.583C85.6949 126.355 77.4154 126.232 76.9486 120.853C76.6783 117.759 77.1697 114.271 76.9486 111.127C76.7766 108.597 74.6391 106.681 72.0594 107.467C71.0275 107.787 69.4797 109.26 69.4797 110.366V124.759H66.0647V110.267C66.0647 109.359 66.8509 107.639 67.416 106.878C70.2414 102.899 76.3343 102.948 79.0615 107.025C81.42 110.562 79.7248 116.383 80.2653 120.436C80.4619 121.836 82.4028 121.909 82.6976 120.534C82.8696 117.292 82.4765 113.853 82.6976 110.636C83.0661 105.011 89.4294 101.867 94.0483 105.257C95.3504 106.215 96.8982 108.597 96.8982 110.243V124.734L96.9473 124.783Z" fill="white"/>
<path d="M61.2247 124.783H57.736L56.5076 120.264H48.228L48.0806 120.313L46.8521 124.783H43.2651L48.6456 106.215C50.218 103.071 54.6404 103.12 55.9916 106.46L61.2493 124.758L61.2247 124.783ZM55.5494 117.243L52.896 107.836C52.7486 107.172 51.9624 107.001 51.6676 107.639L48.9405 117.218H55.5494V117.243Z" fill="white"/>
<path d="M18.0087 124.783H14.5446L13.1687 120.288H4.84C4.32406 121.762 4.05382 123.309 3.46417 124.783H0L5.33137 106.19C6.78091 103.267 11.0313 103.12 12.5054 106.092C14.4463 112.281 16.0678 118.569 17.935 124.783H18.0087ZM12.3334 117.243L9.6063 107.664C9.40976 107.173 8.84467 107.099 8.52528 107.541C7.4934 110.734 6.58437 114.025 5.72447 117.267H12.3334V117.243Z" fill="white"/>
<path d="M32.7006 104.397C35.182 104.643 37.4424 106.411 37.6635 108.99C37.8354 110.906 37.2949 112.281 35.7471 113.411C35.6243 113.509 35.0592 113.706 35.2066 113.853C39.8746 115.695 39.8009 123.088 34.8381 124.562C34.4696 124.66 33.6097 124.881 33.2657 124.881H23.3892V104.397H32.7006ZM26.5094 112.797H32.3321C32.3321 112.797 32.9955 112.502 33.1183 112.429C34.5924 111.569 34.7398 109.555 33.7816 108.229C33.536 107.885 32.7743 107.32 32.3321 107.32H26.5094V112.797ZM26.5094 121.762H32.6024C32.7743 121.762 33.6342 121.394 33.8062 121.271C36.1402 119.724 34.9855 115.622 32.0373 115.622H26.6568C26.6568 115.622 26.5094 115.745 26.5094 115.769V121.762Z" fill="white"/>
<path d="M129.378 124.783H125.914C125.349 123.334 125.054 121.762 124.538 120.288H116.209L114.833 124.783H111.369L116.701 106.19C118.15 103.243 122.4 103.12 123.875 106.092C125.815 112.281 127.437 118.569 129.304 124.783H129.378ZM123.703 117.243L120.975 107.664C120.779 107.173 120.214 107.099 119.894 107.541C118.863 110.734 117.954 114.025 117.094 117.267H123.703V117.243Z" fill="white"/>
<path d="M106.038 104.397H102.721V124.783H106.038V104.397Z" fill="white"/>
<path d="M104.023 128.246V136.155H108.077C108.298 136.155 108.298 137.727 108.077 137.727H102.426V128.246H104.023Z" fill="white"/>
<path d="M117.806 131.783C119.379 130.137 122.106 130.85 122.769 133.011C123.039 133.92 123.064 135.246 122.646 136.106C121.811 137.85 119.133 138.562 117.855 136.916C117.929 138.12 117.29 137.678 116.406 137.751V128.271C116.627 128.295 117.806 128.172 117.806 128.418V131.808V131.783ZM119.084 132.25C117.462 132.594 117.217 136.13 119.256 136.401C120.189 136.523 120.754 136.278 121.148 135.443C121.909 133.822 121.074 131.832 119.084 132.25Z" fill="white"/>
<path d="M114.637 137.727H113.138C113.138 137.727 113.163 137.088 113.138 136.99C111.738 138.464 108.667 137.923 108.863 135.565C109.035 133.527 111.271 133.993 112.549 133.551C114.342 132.937 111.713 131.095 110.804 132.839C110.73 132.962 110.755 133.183 110.73 133.183H109.158C109.183 130.653 113.31 129.892 114.391 132.004C114.465 132.127 114.661 132.593 114.661 132.667V137.727H114.637ZM113.163 134.558C112.499 134.804 110.534 134.632 110.46 135.541C110.313 137.113 112.917 136.72 113.138 135.541C113.212 135.222 113.138 134.902 113.138 134.583L113.163 134.558Z" fill="white"/>
<path d="M129.181 133.158H127.879C127.879 133.158 127.806 132.667 127.56 132.446C126.553 131.439 124.513 132.765 126.061 133.428C127.167 133.895 129.108 133.576 129.353 135.344C129.771 138.537 123.801 138.66 123.875 135.467H125.275C125.275 135.467 125.275 135.713 125.373 135.86C126.012 136.843 127.879 136.769 127.879 135.59C127.879 134.755 125.84 134.681 125.177 134.386C123.678 133.699 123.678 131.857 125.152 131.095C126.798 130.26 129.255 131.046 129.181 133.134V133.158Z" fill="white"/>
</svg>
