<svg width="367" height="135" viewBox="0 0 367 135" fill="none" xmlns="http://www.w3.org/2000/svg">
<path d="M0 97.3613H17.9842V100.874H3.58702V112.123H17.9842V115.635H3.58702V133.246H0V97.3613Z" fill="white"/>
<path d="M36.0911 97.3613L52.8468 133.246H48.965L43.3142 121.432H27.836L22.2344 133.246H18.2297L35.2066 97.3613H36.0911ZM35.6488 105L29.5067 117.993H41.791L35.6734 105H35.6488Z" fill="white"/>
<path d="M58.7925 97.3613H65.9419C69.922 97.3613 72.6245 97.5333 74.0495 97.8525C76.187 98.3438 77.9068 99.3999 79.258 100.996C80.5847 102.593 81.2481 104.582 81.2481 106.916C81.2481 108.881 80.7813 110.6 79.8722 112.074C78.9632 113.547 77.6366 114.677 75.9413 115.439C74.2215 116.2 71.863 116.593 68.8656 116.593L81.7886 133.27H77.3417L64.4187 116.593H62.3795V133.27H58.7925V97.3859V97.3613ZM62.3795 100.874V113.081L68.5708 113.13C70.9539 113.13 72.7474 112.909 73.8775 112.442C75.0322 111.975 75.9168 111.263 76.5556 110.256C77.1943 109.249 77.5137 108.144 77.5137 106.891C77.5137 105.639 77.1943 104.582 76.531 103.6C75.8676 102.617 75.0323 101.905 73.9758 101.488C72.9194 101.07 71.1504 100.849 68.6936 100.849H62.3549L62.3795 100.874Z" fill="white"/>
<path d="M87.5131 133.27L92.6479 97.386H93.2376L107.831 126.835L122.278 97.386H122.843L128.002 133.27H124.489L120.951 107.604L108.249 133.27H107.34L94.4906 107.407L90.9527 133.27H87.4885H87.5131Z" fill="white"/>
<path d="M149.942 97.3613L166.697 133.246H162.816L157.165 121.432H141.687L136.085 133.246H132.08L149.057 97.3613H149.942ZM149.499 105L143.357 117.993H155.642L149.524 105H149.499Z" fill="white"/>
<path d="M172.471 97.3613H176.058V129.782H189.866V133.246H172.471V97.3613Z" fill="white"/>
<path d="M212.862 96.4773C218.291 96.4773 222.861 98.2948 226.522 101.93C230.183 105.565 232.025 110.035 232.025 115.316C232.025 120.597 230.207 125.018 226.546 128.677C222.886 132.337 218.439 134.179 213.181 134.179C207.924 134.179 203.354 132.361 199.693 128.702C196.032 125.067 194.19 120.646 194.19 115.488C194.19 112.049 195.025 108.832 196.696 105.909C198.366 102.986 200.651 100.653 203.526 98.9826C206.4 97.3124 209.52 96.4773 212.886 96.4773H212.862ZM213.009 99.965C210.356 99.965 207.825 100.653 205.467 102.053C203.083 103.428 201.216 105.295 199.89 107.653C198.563 109.986 197.875 112.614 197.875 115.488C197.875 119.762 199.349 123.347 202.322 126.295C205.27 129.242 208.857 130.691 213.009 130.691C215.785 130.691 218.365 130.004 220.748 128.653C223.131 127.302 224.974 125.46 226.301 123.102C227.627 120.769 228.291 118.165 228.291 115.291C228.291 112.418 227.627 109.863 226.301 107.554C224.974 105.246 223.107 103.404 220.699 102.028C218.291 100.653 215.736 99.9405 213.034 99.9405L213.009 99.965Z" fill="white"/>
<path d="M274.037 103.404L271.261 106.032C269.271 104.067 267.06 102.568 264.677 101.561C262.294 100.554 259.96 100.039 257.699 100.039C254.874 100.039 252.196 100.726 249.665 102.102C247.11 103.477 245.145 105.368 243.744 107.726C242.344 110.084 241.656 112.589 241.656 115.242C241.656 117.895 242.369 120.498 243.818 122.93C245.268 125.361 247.258 127.277 249.813 128.653C252.368 130.028 255.169 130.74 258.215 130.74C261.901 130.74 265.045 129.709 267.576 127.621C270.131 125.533 271.654 122.832 272.121 119.516H260.672V116.053H276.15C276.126 121.604 274.48 126 271.212 129.267C267.944 132.533 263.596 134.154 258.117 134.154C251.484 134.154 246.226 131.895 242.344 127.375C239.371 123.888 237.873 119.86 237.873 115.291C237.873 111.902 238.732 108.733 240.428 105.811C242.148 102.888 244.482 100.604 247.454 98.9333C250.427 97.2877 253.793 96.4526 257.552 96.4526C260.598 96.4526 263.448 96.993 266.151 98.0982C268.829 99.2035 271.458 100.947 274.013 103.379L274.037 103.404Z" fill="white"/>
<path d="M282.686 97.3613H286.273V133.246H282.686V97.3613Z" fill="white"/>
<path d="M328.137 104.042L325.312 106.204C323.74 104.165 321.872 102.618 319.686 101.586C317.499 100.53 315.091 100.014 312.463 100.014C309.588 100.014 306.935 100.702 304.502 102.077C302.07 103.453 300.178 105.295 298.827 107.628C297.476 109.937 296.812 112.565 296.812 115.439C296.812 119.811 298.311 123.47 301.308 126.393C304.306 129.316 308.089 130.79 312.684 130.79C317.72 130.79 321.921 128.825 325.312 124.895L328.137 127.032C326.344 129.316 324.108 131.06 321.43 132.312C318.752 133.565 315.755 134.179 312.463 134.179C306.173 134.179 301.235 132.091 297.599 127.916C294.552 124.379 293.029 120.13 293.029 115.119C293.029 109.863 294.871 105.442 298.557 101.856C302.242 98.2703 306.861 96.4773 312.413 96.4773C315.755 96.4773 318.801 97.1404 321.504 98.4668C324.206 99.7931 326.417 101.66 328.137 104.042Z" fill="white"/>
<path d="M350.2 97.3613L366.955 133.246H363.074L357.423 121.432H341.945L336.343 133.246H332.338L349.315 97.3613H350.2ZM349.757 105L343.615 117.993H355.9L349.782 105H349.757Z" fill="white"/>
<path fill-rule="evenodd" clip-rule="evenodd" d="M199.545 0C183.478 0 170.456 12.0842 170.456 27.0175C170.456 41.9509 183.478 54.0351 199.545 54.0351C215.613 54.0351 228.635 41.9509 228.635 27.0175C228.635 12.0842 215.613 0 199.545 0ZM199.275 43.5965C187.016 43.5965 177.09 34.386 177.09 22.9895C177.09 11.593 187.016 2.38246 199.275 2.38246C211.535 2.38246 221.461 11.593 221.461 22.9895C221.461 34.386 211.535 43.5965 199.275 43.5965Z" fill="white"/>
<path fill-rule="evenodd" clip-rule="evenodd" d="M174.608 9.38257C154.561 9.38257 138.296 24.4387 138.296 43.0317C138.296 61.6247 154.561 76.6808 174.608 76.6808C194.656 76.6808 210.921 61.6247 210.921 43.0317C210.921 24.4387 194.656 9.38257 174.608 9.38257ZM174.608 63.737C159.278 63.737 146.871 52.2668 146.871 38.0949C146.871 23.9229 159.278 12.4527 174.608 12.4527C189.939 12.4527 202.346 23.9229 202.346 38.0949C202.346 52.2668 189.939 63.737 174.608 63.737Z" fill="white"/>
</svg>
