<svg width="323" height="124" viewBox="0 0 323 124" fill="none" xmlns="http://www.w3.org/2000/svg">
<path d="M47.1992 123.7C28.3797 112.647 20.788 107.391 13.5157 98.9421C9.53561 94.5947 5.92405 89.0684 3.39349 83.5912C1.20689 78.8508 -0.0706814 73.8649 0.00302423 68.5596C0.101298 62.5666 1.82113 57.0894 4.72021 52.0052C7.74214 46.7 11.7468 42.3526 16.2429 38.4965C22.213 33.3877 28.7974 29.3596 35.652 25.7491C47.494 19.5351 59.8766 14.893 72.6031 11.307C81.1775 8.89998 89.8502 7.00874 98.5965 5.46138C105.156 4.30699 111.741 3.37366 118.35 2.5877C123.828 1.9491 129.332 1.43331 134.811 1.01577C145.621 0.229803 156.455 -0.114042 167.29 0.0333265C173.703 0.131572 180.115 0.377167 186.527 0.819272C193.333 1.28594 200.138 1.92453 206.919 2.80874C218.589 4.30698 230.186 6.3456 241.684 9.04736C254.508 12.093 267.112 15.9245 279.175 21.6228C290.157 26.8052 300.329 33.486 309.468 41.8614C312.367 44.514 315.045 47.4368 317.33 50.7035C320.156 54.7807 321.753 59.3982 322.342 64.4333C323.006 69.5175 321.875 74.8719 321.728 74.9456C322.367 72.4158 322.416 69.0754 322.318 67.921C321.998 62.1491 320.549 58.1947 318.436 54.1912C316.421 50.4333 313.571 47.5596 310.328 45.0789C303.572 39.8965 296.226 35.7702 288.585 32.307C278.168 27.5667 267.407 23.8825 256.449 20.9105C248.686 18.7982 240.824 17.1035 232.937 15.7035C227.63 14.7701 222.299 13.9842 216.943 13.321C209.745 12.4122 202.497 11.7491 195.249 11.2825C183.112 10.4965 170.975 10.2263 158.814 10.6193C153.802 10.7912 148.815 11.0123 143.803 11.3807C138.373 11.7737 132.968 12.2895 127.563 12.9526C121.691 13.6649 115.844 14.5 110.021 15.5561C93.8548 18.4544 77.8853 22.2368 62.4071 28.2298C53.3659 31.7175 44.5949 35.8193 36.3153 41.1245C30.468 44.8824 24.9892 49.1807 20.2967 54.5351C16.3657 59.0053 13.1472 63.9666 11.3292 69.8614C9.3391 76.321 9.4619 82.4859 11.1326 88.4789C11.6976 90.5175 12.1153 91.7947 13.0489 93.8087C13.4911 94.7912 14.7688 97.0263 15.4075 97.8859C16.3166 99.114 16.9062 99.8263 17.9626 101.005C29.2396 113.851 47.1992 123.651 47.1992 123.651" fill="white"/>
<path d="M226.943 60.6508C224.977 69.4929 218.073 100.71 216.599 107.391C213.135 107.391 208.59 107.367 205.101 107.391C207.042 98.6964 217.042 53.6753 219.941 40.6086C223.454 40.6086 228.245 40.6086 231.758 40.6086C236.868 55.4192 242.544 71.4823 247.678 86.3174C247.58 86.0227 247.752 86.4893 247.678 86.3174C247.629 86.4893 247.752 86.0472 247.678 86.3174C250.43 73.8893 257.825 40.6086 257.825 40.6086C261.24 40.6086 265.884 40.6086 269.299 40.6086C267.432 48.9841 257.457 93.9315 254.509 107.391C251.094 107.391 246.548 107.391 243.133 107.391C238.465 93.8823 227.09 60.9455 226.967 60.6508" fill="white"/>
<path d="M183.849 66.5702C183.727 66.7913 162.868 103.707 160.534 107.514C156.357 107.514 151.861 107.514 147.66 107.514C147.635 107.514 147.586 107.514 147.537 107.514C147.537 107.293 184.98 43.4334 186.773 40.4614C188.001 40.4614 190.114 40.486 191.318 40.4614C191.392 40.8544 201.293 105.967 201.563 107.514C198.025 107.514 193.726 107.514 190.164 107.514C189.033 99.9246 183.923 66.6439 183.849 66.5702Z" fill="white"/>
<path d="M119.627 107.49C126.162 96.8053 133.435 84.9421 140.019 74.2825C133.558 63.4263 126.359 51.3176 119.922 40.4614C120.168 40.4614 128.939 40.4614 132.87 40.4614C137.218 47.8053 141.837 55.6158 146.21 62.9597C146.309 63.1316 146.432 63.3036 146.554 63.5492C146.702 63.3281 156.259 47.8053 160.73 40.4614C164.686 40.4614 173.457 40.4614 173.629 40.4614C173.629 40.7562 146.137 85.507 132.673 107.514C128.718 107.514 119.799 107.514 119.627 107.514" fill="white"/>
<path d="M99.3828 79.0227C103.535 78.8999 107.146 77.2543 109.947 73.9631C114.861 68.2648 116.483 61.4859 115.082 53.921C114.173 49.0333 111.667 45.2262 107.54 42.8192C104.616 41.1245 101.471 40.5596 98.2035 40.5596H69.3109C69.4338 40.8543 69.5075 41.0262 69.5812 41.1982C71.0061 44.4157 72.6031 48.149 74.0527 51.342C72.5294 59.1526 65.1834 96.9034 63.1196 107.514C66.5838 107.514 70.9078 107.514 74.3966 107.514C74.716 105.844 81.7917 69.542 82.0128 68.3385C83.0693 63.0087 84.2977 56.6227 85.3296 51.2929C88.4498 51.3175 91.9876 51.2929 95.1324 51.342C96.4837 51.342 97.8104 51.7104 99.0634 52.2753C103.486 54.2894 104.984 59.4964 102.38 63.8438C100.857 66.3736 97.5156 68.0438 94.7885 68.4613C86.2387 69.2227 83.0201 68.3139 82.0128 68.2894C82.1602 68.6087 93.6092 94.8403 99.1617 107.489C102.921 107.489 107.662 107.489 111.421 107.489C107.417 98.3771 103.142 88.6508 99.1371 79.5631C98.9651 79.1701 98.8914 79.0227 99.4319 78.9981" fill="white"/>
</svg>
