<svg width="339" height="249" viewBox="0 0 339 249" fill="none" xmlns="http://www.w3.org/2000/svg">
<path d="M123.574 159.654C124.841 159.897 132.342 165.336 132.351 169.865V182.111C132.332 187.813 128.282 191.475 123.574 192.896V199.582H169.645V192.896C163.836 192.424 161.409 188.719 161.238 182.111V169.865C161.218 167.342 165.108 160.112 169.645 159.654V153.27H123.574V159.654Z" fill="white"/>
<path d="M100.979 141.828V57.701C104.449 58.3097 110.156 58.894 110.156 64.6982V133.613C110.029 138.307 104.303 140.732 100.979 141.828ZM137.927 100.317C137.927 77.3486 124.066 51.1421 100.979 51.1421H62.5349V57.701C66.9846 60.1405 72.6333 60.3012 72.6333 72.1774L72.5748 181.361C71.1565 188.724 67.7157 190.525 62.5154 192.901V199.587H110.156V192.901C103.533 190.175 101.125 188.095 100.979 181.313V153.27C123.574 153.27 137.927 124.162 137.927 100.322V100.317Z" fill="white"/>
<path d="M154.298 148.148C162.807 148.148 169.528 141.272 169.528 132.785C169.528 124.303 162.802 117.423 154.298 117.423C145.808 117.423 138.892 124.308 138.892 132.785C138.892 141.272 145.808 148.148 154.298 148.148Z" fill="white"/>
<path d="M254.648 163.033L266.057 120.11L278.042 163.033H254.648ZM312.09 184.215L279.046 51.1079L273.217 51.142L239.554 178.6C237.356 187.146 230.806 192.249 225.79 192.877L225.771 199.582H257.801V192.877C252.177 191.621 248.288 187.404 249.74 182.486L252.279 173.405L281.497 173.551L283.062 183.582C284.002 188.918 279.743 191.148 276.453 192.872V199.577H323.431V192.872C319.201 192.872 314.907 190.476 312.095 184.205L312.09 184.215Z" fill="white"/>
<path d="M231.712 140.703L200.754 100.122C200.754 100.122 182.044 79.5836 194.028 67.1912C203.201 57.6621 221.258 63.7487 225.795 91.3672H232.39V51.1421H225.795C223.924 57.107 221.141 57.6815 216.482 55.6462C192.181 44.9971 179.397 55.1106 172.764 71.7976C167.822 87.4085 166.282 105.405 190.924 130.57C220.069 160.097 220.205 179.18 208.036 186.016C195.661 191.67 184.983 182.515 181.464 159.654H174.923V199.582H181.464C184.271 194.874 185.421 194.041 190.909 196.777C218.802 211.22 252.893 171.891 231.712 140.698V140.703Z" fill="white"/>
<path d="M137.508 236.321L131.147 223.067H126.81V246.902H129.758V226.353L136.338 240.328H138.219L144.877 226.353V246.902H148.045V223.067H143.649L137.508 236.321Z" fill="white"/>
<path d="M109.177 234.802H105.95V225.798H109.708C110.541 225.798 111.292 225.847 111.93 225.983C112.559 226.09 113.115 226.329 113.553 226.602C114.104 226.996 114.504 227.439 114.747 227.951C115.015 228.486 115.103 229.08 115.103 229.781C115.103 230.658 115.015 231.422 114.762 231.977C114.557 232.571 114.182 233.083 113.695 233.536C113.158 234.013 112.549 234.329 111.784 234.519C111.048 234.685 110.166 234.802 109.172 234.802H109.177ZM117.121 233.852C118.022 232.708 118.417 231.267 118.417 229.528C118.417 228.277 118.173 227.244 117.681 226.412C117.223 225.569 116.551 224.878 115.668 224.342C114.889 223.885 114.05 223.549 113.095 223.344C112.111 223.159 110.897 223.062 109.484 223.062H102.777V246.902H105.95V237.392H110.458L118.422 246.902H122.501L113.558 236.467C115.093 235.897 116.229 234.996 117.126 233.847L117.121 233.852Z" fill="white"/>
<path d="M158.811 237.524L162.983 225.852L167.15 237.524H158.811ZM160.95 223.067L152.29 246.907H155.487L157.811 240.26H168.173L170.483 246.907H173.87L165.21 223.067H160.955H160.95Z" fill="white"/>
<path d="M62.491 246.902H65.6638V235.43H76.0351V232.606H65.6638V225.886H77.7555V223.067H62.491V246.902Z" fill="white"/>
<path d="M83.5115 237.524L87.6786 225.852L91.8505 237.524H83.5115ZM85.656 223.067L76.9807 246.907H80.2023L82.5027 240.26H92.8788L95.1744 246.907H98.547L89.8815 223.067H85.656Z" fill="white"/>
<path d="M266.769 225.492H269.844V244.457H266.769V246.882H276.165V244.457H273.032V225.492H276.165V223.067H266.769V225.492Z" fill="white"/>
<path d="M187.8 222.648C186.07 222.648 184.456 222.896 183.004 223.461C181.605 223.997 180.401 224.781 179.373 225.803C178.301 226.899 177.511 228.199 176.956 229.728C176.405 231.271 176.122 233.029 176.122 234.996C176.122 237.061 176.405 238.868 176.98 240.45C177.599 242.008 178.35 243.303 179.388 244.307C180.45 245.339 181.664 246.089 183.087 246.585C184.476 247.077 186.06 247.306 187.79 247.306C188.706 247.306 189.554 247.243 190.32 247.097C191.075 246.941 191.762 246.795 192.415 246.566C193.2 246.318 193.848 246.089 194.306 245.884C194.779 245.65 195.296 245.407 195.871 245.159V241.434H195.642C194.511 242.485 193.253 243.26 191.928 243.805C190.573 244.311 189.13 244.584 187.615 244.584C186.528 244.584 185.48 244.375 184.471 244.009C183.462 243.639 182.585 243.05 181.844 242.271C181.133 241.526 180.567 240.533 180.08 239.32C179.631 238.137 179.407 236.681 179.407 234.996C179.407 233.39 179.627 231.977 180.021 230.794C180.445 229.523 181.025 228.535 181.761 227.731C182.526 226.928 183.37 226.324 184.33 225.944C185.319 225.54 186.396 225.341 187.595 225.341C189.067 225.341 190.446 225.608 191.762 226.095C193.059 226.607 194.321 227.41 195.642 228.491H195.871V224.737C194.316 223.953 192.932 223.412 191.631 223.091C190.378 222.823 189.082 222.658 187.785 222.658L187.8 222.648Z" fill="white"/>
<path d="M308.161 237.523L312.348 225.832L316.539 237.523H308.161ZM314.541 223.047H310.316L301.64 246.887H304.896L307.192 240.26H317.519L319.883 246.887H323.241L314.541 223.047Z" fill="white"/>
<path d="M291.289 222.648C289.51 222.648 287.897 222.896 286.508 223.461C285.055 223.997 283.798 224.771 282.813 225.803C281.761 226.899 280.952 228.179 280.415 229.728C279.874 231.271 279.592 233.024 279.592 234.996C279.592 237.061 279.874 238.868 280.44 240.435C281.03 242.008 281.829 243.284 282.833 244.287C283.886 245.339 285.119 246.089 286.532 246.585C287.921 247.077 289.51 247.306 291.25 247.306C292.166 247.306 292.98 247.243 293.77 247.077C294.515 246.941 295.227 246.765 295.88 246.566C296.679 246.318 297.293 246.089 297.751 245.884C298.239 245.65 298.794 245.407 299.36 245.159V241.434H299.101C297.951 242.485 296.694 243.26 295.373 243.805C294.047 244.311 292.624 244.584 291.089 244.584C289.983 244.584 288.93 244.375 287.911 244.009C286.951 243.635 286.045 243.05 285.289 242.271C284.578 241.526 284.012 240.533 283.569 239.32C283.091 238.137 282.843 236.681 282.843 234.996C282.843 233.39 283.062 231.977 283.496 230.77C283.881 229.523 284.485 228.515 285.226 227.712C285.962 226.899 286.81 226.31 287.775 225.944C288.754 225.54 289.832 225.341 291.065 225.341C292.502 225.341 293.911 225.608 295.188 226.095C296.484 226.592 297.756 227.41 299.092 228.491H299.35V224.737C297.756 223.953 296.382 223.412 295.076 223.091C293.818 222.823 292.517 222.658 291.279 222.658L291.289 222.648Z" fill="white"/>
<path d="M200.988 246.902H216.706V244.063H204.151V235.211H216.706V232.406H204.151V225.886H216.706V223.067H200.988V246.902Z" fill="white"/>
<path d="M236.464 237.553C236.464 238.736 236.42 239.685 236.259 240.489C236.035 241.263 235.748 241.964 235.338 242.539C234.851 243.26 234.212 243.805 233.433 244.151C232.609 244.477 231.639 244.657 230.523 244.657C229.353 244.657 228.388 244.477 227.594 244.131C226.775 243.785 226.132 243.264 225.703 242.539C225.235 241.964 224.967 241.263 224.791 240.533C224.601 239.778 224.528 238.785 224.528 237.475V223.062H221.351V237.319C221.351 239.121 221.511 240.635 221.901 241.877C222.286 243.123 222.935 244.19 223.783 245.037C224.567 245.777 225.484 246.371 226.595 246.795C227.725 247.189 228.997 247.369 230.528 247.369C231.98 247.369 233.257 247.189 234.329 246.829C235.46 246.454 236.42 245.86 237.244 245.042C238.063 244.194 238.706 243.128 239.091 241.862C239.476 240.552 239.642 239.048 239.642 237.324V223.067H236.464V237.558V237.553Z" fill="white"/>
<path d="M242.512 225.886H251.036V246.882H254.195V225.886H262.704V223.067H242.512V225.886Z" fill="white"/>
<path d="M311.783 57.5452H309.775V61.8642H311.841C313.045 61.8642 313.869 61.7084 314.39 61.387C314.902 61.0608 315.126 60.5301 315.126 59.8094C315.126 59.0108 314.902 58.4509 314.39 58.0905C313.83 57.7448 312.957 57.5501 311.783 57.5501V57.5452ZM312.231 55.9968C314.015 55.9968 315.389 56.3035 316.296 56.8976C317.207 57.4721 317.631 58.3876 317.631 59.5513C317.631 60.4668 317.368 61.2361 316.89 61.8642C316.379 62.4534 315.633 62.8722 314.697 63.0475L317.597 68.9296H314.853L312.187 63.4273H309.77V68.9296H307.323V55.9968H312.226H312.231ZM321.881 62.7748C321.881 61.4017 321.662 60.121 321.179 58.894C320.692 57.6815 320.005 56.6151 319.089 55.7143C318.119 54.7259 317.042 54.0101 315.833 53.4988C314.639 53.007 313.342 52.7587 311.978 52.7587C310.623 52.7587 309.351 53.007 308.157 53.4793C306.982 53.976 305.983 54.6626 305.057 55.578C304.087 56.5616 303.337 57.662 302.805 58.894C302.289 60.1405 302.04 61.3822 302.04 62.692C302.04 63.9872 302.264 65.2386 302.786 66.4462C303.254 67.61 303.99 68.7056 304.935 69.6453C305.866 70.6095 306.948 71.3301 308.157 71.8414C309.351 72.3721 310.623 72.6059 311.875 72.6059C313.216 72.6059 314.517 72.3721 315.721 71.8706C316.925 71.3642 318.016 70.6387 319.011 69.694C319.961 68.7932 320.668 67.7269 321.165 66.5582C321.637 65.3652 321.876 64.1333 321.876 62.7699L321.881 62.7748ZM311.958 51.2249C313.484 51.2249 314.97 51.5511 316.379 52.1257C317.768 52.7002 318.986 53.5378 320.117 54.6626C321.179 55.7338 322.003 56.9755 322.534 58.3535C323.124 59.7461 323.382 61.1582 323.382 62.6823C323.382 64.2258 323.119 65.7158 322.534 67.0646C322.003 68.467 321.174 69.6697 320.049 70.7312C318.928 71.817 317.695 72.6546 316.276 73.2389C314.858 73.8329 313.401 74.1251 311.958 74.1251C310.433 74.1251 308.966 73.8329 307.582 73.2389C306.193 72.6497 304.96 71.8024 303.863 70.6825C302.796 69.5967 301.962 68.3501 301.402 66.977C300.807 65.6087 300.534 64.1674 300.534 62.6774C300.534 61.1679 300.841 59.712 301.446 58.2853C302.006 56.8927 302.903 55.6169 303.995 54.4873C305.042 53.4209 306.232 52.6175 307.582 52.0624C308.932 51.5316 310.408 51.2249 311.958 51.2249Z" fill="white"/>
</svg>
